<?xml version="1.0" encoding="utf-8"?>
<!-- Generator: Adobe Illustrator 26.0.0, SVG Export Plug-In . SVG Version: 6.00 Build 0)  -->
<svg version="1.1" id="Layer_1" xmlns="http://www.w3.org/2000/svg" xmlns:xlink="http://www.w3.org/1999/xlink" x="0px" y="0px"
	 viewBox="0 0 695.6 323.1" style="enable-background:new 0 0 695.6 323.1;" xml:space="preserve">
<style type="text/css">
	.st0{display:none;}
	.st1{display:inline;fill:#358438;}
	.st2{display:inline;fill:#FF5722;}
	.st3{fill:#FF5722;}
	.st4{fill:#C14322;}
	.st5{fill:#358438;}
	.st6{fill:#FEFEFE;}
	.st7{fill:url(#SVGID_1_);}
	.st8{fill:#DCD86D;}
	.st9{fill:url(#SVGID_00000101082506564158698770000018239548450262492544_);}
	.st10{fill:url(#SVGID_00000082367747070960676080000000178093257820169403_);}
	.st11{fill:url(#SVGID_00000055704298780035237040000008348557030975658120_);}
	.st12{fill:url(#SVGID_00000111911269191778465220000011981235565702437517_);}
	.st13{fill:#C71E07;}
	.st14{display:none;fill:url(#SVGID_00000071561424788568229650000014487453067718684545_);}
	.st15{display:none;fill:url(#SVGID_00000088815488482255927880000007115942285817814929_);}
	.st16{fill:#FFEB3B;}
	.st17{fill:#C8EAC9;}
	.st18{fill:none;}
</style>
<g class="st0">
	<path class="st1" d="M-13.4-422.5c-0.3,0.2-0.6,0.2-0.9,0.2c-0.3,0-0.9,0-1.7,0c-2,0-4.4-0.4-7.1-1.1c-2.7-0.7-5.3-1.6-7.9-2.7
		c-2.5-1.1-4.7-2.3-6.6-3.6c-1.8-1.3-2.9-2.5-3.4-3.4c-0.1-2.3-0.2-4.7-0.2-7.1c0-2.5,0-4.8,0-7.1c0-18.3,1.2-37.5,3.6-57.4
		c2.4-20,6.4-41.6,11.9-64.8c0.6-2.3,1.2-5.2,1.9-8.7c0.7-3.5,1.3-7.3,2.1-11.4c-3.5,3.1-7.6,8.1-12.4,14.8
		c-4.8,6.8-9.9,14.8-15.2,24c-5.3,9.2-10.6,19.4-15.9,30.4s-10.2,22.3-14.5,33.6c-4.4,11.4-8.1,22.6-11.2,33.7
		c-3.1,11.1-5.1,21.4-5.8,30.9c-7-2.3-11.8-4.6-14.5-6.9c-2.7-2.3-4-5.1-4-8.3c0-2.9,0.8-7.1,2.4-12.5c1.6-5.4,3.9-11.8,6.8-19.1
		c2.9-7.4,6.5-15.6,10.7-24.7c4.2-9.1,8.9-18.9,14-29.3c5.8-11.9,11.5-23.1,17.1-33.6s11.1-20,16.5-28.5S-37-601-31.9-607.2
		c5.2-6.2,10.3-11,15.4-14.2c2,0,4.8,0.6,8.2,1.7c3.4,1.1,6.8,2.5,10,4.2c3.3,1.6,6.2,3.3,8.7,5s4,3.2,4.3,4.3
		c-2,4.6-4.4,11.5-7.2,20.6c-2.8,9.2-5.6,19.6-8.4,31.2c-2.8,11.6-5.5,23.9-8.1,36.9c-2.5,13-4.6,25.5-6,37.4
		c3.3-9,7.2-18.4,11.7-28.1c4.4-9.7,9.1-19.4,14.1-29c4.9-9.6,10-18.9,15.2-27.9s10.2-17.2,15.2-24.7c4.9-7.4,9.6-13.9,13.9-19.5
		c4.3-5.6,8.1-9.7,11.5-12.3c2,0,4.8,0.6,8.2,1.7c3.4,1.1,6.8,2.5,10,4.2c3.3,1.6,6.2,3.3,8.7,5s4,3.2,4.3,4.3
		c-4.7,9.3-8.7,20.7-12.2,34.1c-3.5,13.4-6.4,27.5-8.8,42.2c-2.4,14.7-4.2,29.3-5.5,43.8c-1.2,14.5-1.9,27.4-1.9,38.9
		c0,3.8,0,7.7,0,11.8s0.1,8.3,0.4,12.8c-2,0-4.5-0.3-7.3-0.9c-2.8-0.6-5.6-1.3-8.3-2.3s-5.1-2.1-7.3-3.3c-2.2-1.2-3.7-2.6-4.6-4
		c-0.1-2.3-0.2-4.7-0.2-7.1c0-2.5,0-4.8,0-7.1c0-18.3,1.2-37.5,3.6-57.4c2.4-20,6.4-41.6,11.9-64.8c0.6-2.3,1.2-5.4,2-9.3
		c0.7-3.9,1.5-8,2.2-12.3c-4.1,2.3-8.7,6.7-13.9,13.1c-5.2,6.5-10.4,14.3-15.7,23.6c-5.3,9.2-10.6,19.5-15.7,30.8
		c-5.2,11.3-9.8,22.8-14,34.5C-1.6-477.6-5.1-466-8-454.5C-11.1-442.7-12.9-432.1-13.4-422.5z"/>
	<path class="st1" d="M184.4-542.2c-0.6,10.1-2.2,18.9-4.8,26.1c-2.6,7.3-6.4,13.7-11.2,19.1c-4.9,5.5-10.8,10.4-17.8,14.8
		s-15.1,8.7-24.5,12.8c0,1,0,2-0.1,3.1s-0.1,2.2-0.1,3.3c0,2.1,0.1,4.3,0.4,6.6c0.3,2.3,0.8,4.4,1.5,6.4c0.7,2,1.7,3.6,3.1,4.8
		c1.3,1.2,3,1.8,5,1.8c3.9,0,7.8-1,11.6-2.9c3.8-2,7.4-4.4,10.8-7.2c3.4-2.9,6.6-6,9.6-9.3c3-3.4,5.6-6.4,8-9.2
		c1.5,1.5,2.7,2.9,3.7,4.2c-6.6,9.8-13.7,18-21.5,24.4c-7.8,6.5-15.2,10.6-22.2,12.4c-10-1.3-17.9-5.4-23.5-12.4s-8.4-15.3-8.4-25.2
		c0-6.7,0.8-13.5,2.5-20.5c1.7-7,4-13.7,7-20.1c3-6.5,6.5-12.6,10.5-18.3s8.3-10.7,12.9-15s9.3-7.6,14.2-10.1
		c4.9-2.5,9.7-3.7,14.5-3.7C172.3-555.2,178.6-550.5,184.4-542.2z M169.3-534.1c-3.9,0.7-8,2.5-12.2,5.4c-4.2,2.9-8.2,6.9-11.9,11.8
		c-3.7,4.9-7.1,10.6-10.2,17.2c-3.1,6.5-5.5,13.6-7.2,21.1c11.6-6.5,21.3-14.6,29-24.2C164.6-512.4,168.8-522.8,169.3-534.1z"/>
	<path class="st1" d="M280.7-539.8c1.5,0,3.2,0.3,5.1,0.9c2,0.6,3.7,1.3,5.4,2.2c1.6,0.9,2.9,1.8,4,2.8s1.6,1.9,1.6,2.7
		c-2.9,6.9-5.6,13.8-8.1,20.7c-2.5,7-4.6,13.6-6.3,20c-1.7,6.4-3.1,12.4-4,17.9c-0.9,5.6-1.4,10.4-1.4,14.5c0,4.6,0.4,8.4,1.3,11.4
		s2.3,5.2,4.4,6.5c-1.7,1.3-4,2.4-6.8,3.2c-2.8,0.8-5.2,1.2-7.4,1.2c-7.9,0-11.8-6.1-11.8-18.2c0-9.3,2.8-22.1,8.3-38.3
		c-2.9,7.5-6.3,14.5-10,21.1c-3.8,6.6-7.6,12.4-11.6,17.5c-3.9,5-7.9,9.2-11.9,12.3c-4,3.2-7.7,5.1-11,5.7c-5.4,0-9.8-2.8-13.1-8.3
		c-3.4-5.5-5-12.5-5-21.1c0-9.2,1.7-18.9,5.2-29.1s8-19.6,13.4-28.3c5.5-8.7,11.4-16,17.8-21.8c6.4-5.8,12.6-8.8,18.6-8.8
		c1.5,0.5,3.1,1.5,4.9,2.9c1.8,1.5,3.6,3.2,5.2,5.1c1.7,2,3.1,4,4.3,6c1.2,2,1.8,3.8,2,5.3c-5.8,1-11.8,4.2-18,9.5
		c-6.2,5.4-11.8,11.9-16.8,19.5s-9.1,15.7-12.3,24.4c-3.2,8.7-4.8,16.7-4.8,24.2c0,3.1,1,5.1,3.1,5.9c4.2-1,9.1-5,14.6-12.1
		s12.2-18.1,20.1-33c1.5-2.9,3.1-6.2,4.9-9.8s3.7-7.4,5.6-11.3c1.9-3.9,3.7-7.9,5.6-11.9C277.4-532.1,279.1-536,280.7-539.8z"/>
	<path class="st1" d="M318.7-456.3c0-7.2,1.5-17.3,4.6-30.3s7.3-28.2,12.9-45.5c9-27.6,17.5-50.7,25.4-69.1
		c7.9-18.4,15.7-32.8,23.3-43.1c1.7,0.3,3.9,1.1,6.4,2.5c2.5,1.3,5.1,2.7,7.5,4.3c2.5,1.6,4.7,3.2,6.7,4.8c2,1.6,3.2,2.9,3.8,3.9
		c-11.4,15.1-21.3,31.3-29.9,48.6c-8.6,17.3-16.5,37.2-23.6,59.6c-6.1,19.3-10.8,36.7-14,52.1c-3.2,15.5-4.8,28.3-4.8,38.7
		c0,2.8,0,4.5,0,5.2c0,0.7,0.1,1.3,0.2,2c-2-0.3-3.8-0.9-5.2-1.7c-1.5-0.8-2.4-1.8-2.8-2.9c-0.3-0.8-1.1-2-2.4-3.6s-2.5-2.7-3.5-3.6
		c-1.3-1-2.4-3.6-3.3-7.7C319.1-446.4,318.7-451.1,318.7-456.3z"/>
</g>
<g class="st0">
	<path class="st2" d="M-27.9-407.6v96.3h-11.3v-71.9l-28.4,71.8h-7.9l-28.7-71.9v71.9h-11.2v-96.3h12.1l31.7,79.7l31.7-79.6
		C-39.9-407.6-27.9-407.6-27.9-407.6z"/>
	<path class="st2" d="M16-370.3c2.8-5.9,6.7-10.5,11.6-13.7c4.9-3.2,10.4-4.9,16.4-4.9c5.9,0,11.1,1.4,15.5,4.3
		c4.4,2.9,7.6,6.5,9.8,10.9v-13.9h11.4v76.3H69.3v-14.2c-2.2,4.5-5.6,8.1-10,11.1c-4.4,2.9-9.6,4.4-15.4,4.4c-6,0-11.5-1.7-16.3-5
		c-4.9-3.3-8.7-8-11.5-14.1c-2.8-6-4.2-12.9-4.2-20.6C11.8-357.5,13.2-364.4,16-370.3z M66.1-364.6c-2.1-4.3-4.9-7.5-8.4-9.8
		c-3.5-2.3-7.4-3.4-11.6-3.4c-4.2,0-8,1.1-11.5,3.3s-6.2,5.5-8.3,9.7c-2.1,4.3-3.1,9.3-3.1,15c0,5.8,1,10.9,3.1,15.2
		c2.1,4.3,4.8,7.6,8.3,9.9c3.5,2.3,7.3,3.4,11.5,3.4s8.1-1.1,11.6-3.4c3.5-2.3,6.3-5.6,8.4-9.9c2.1-4.3,3.1-9.3,3.1-15.1
		C69.2-355.4,68.2-360.4,66.1-364.6z"/>
	<path class="st2" d="M134.5-313.1c-4.1-2-7.4-4.8-9.8-8.3c-2.4-3.6-3.7-7.7-4-12.3h11.7c0.3,3.8,1.9,6.9,4.8,9.3
		c2.8,2.4,6.6,3.6,11.2,3.6c4.3,0,7.7-1.1,10.2-3.2s3.7-4.8,3.7-8.1c0-3.3-1.3-5.8-4-7.4c-2.6-1.6-6.7-3.2-12.3-4.8
		c-5-1.5-9.1-3-12.3-4.5c-3.2-1.5-5.9-3.8-8.2-6.8c-2.3-3-3.4-7-3.4-11.9c0-3.9,1-7.5,3.1-10.7c2.1-3.2,5-5.8,8.8-7.7
		s8.1-2.9,13-2.9c7.5,0,13.6,2.1,18.2,6.4c4.6,4.3,7.1,10.1,7.4,17.5h-11.3c-0.2-4-1.7-7.2-4.3-9.6c-2.6-2.4-6.1-3.6-10.5-3.6
		c-4,0-7.3,1-9.7,2.9c-2.4,1.9-3.6,4.5-3.6,7.7c0,2.5,0.7,4.6,2.2,6.2c1.4,1.6,3.3,2.9,5.4,3.9c2.2,1,5.2,2.1,9.1,3.3
		c4.9,1.5,8.8,2.9,11.9,4.4c3.1,1.4,5.7,3.6,7.9,6.5c2.2,2.9,3.3,6.6,3.4,11.3c0,4.2-1,7.9-3.1,11.3c-2.1,3.3-5,6-8.7,7.9
		c-3.8,1.9-8.1,2.9-12.9,2.9C143.3-310.1,138.6-311.1,134.5-313.1z"/>
	<path class="st2" d="M227.6-377.2v45c0,3.7,0.7,6.3,2.1,7.9c1.4,1.5,3.8,2.3,7.3,2.3h8.3v10.7h-10.2c-6.3,0-11-1.6-14.1-4.9
		c-3.1-3.2-4.7-8.6-4.7-16v-45h-8.8v-10.4h8.8v-19.2h11.3v19.2h17.7v10.4H227.6z"/>
	<path class="st2" d="M345.2-344.7H291c0.4,7.5,2.7,13.4,6.9,17.6c4.2,4.2,9.2,6.3,15.2,6.3c4.9,0,8.9-1.3,12.2-3.8
		c3.3-2.6,5.6-6,6.9-10.2h12.1c-1.8,7.3-5.4,13.3-10.9,17.9c-5.4,4.6-12.2,6.9-20.3,6.9c-6.4,0-12.2-1.6-17.3-4.9
		c-5.1-3.2-9.1-7.9-11.9-13.8c-2.9-6-4.3-12.9-4.3-20.8s1.4-14.8,4.2-20.7c2.8-5.9,6.7-10.5,11.8-13.7c5.1-3.2,10.9-4.8,17.5-4.8
		c6.4,0,12.1,1.6,17.1,4.7c5,3.2,8.8,7.5,11.5,13s4,11.8,4,18.7C345.6-350,345.5-347.4,345.2-344.7z M331.1-367.5
		c-1.9-3.5-4.5-6.1-7.7-7.9c-3.3-1.8-6.9-2.7-10.8-2.7c-5.7,0-10.5,2-14.5,6.1c-4,4.1-6.3,9.7-6.9,17H334
		C333.9-359.9,333-364,331.1-367.5z"/>
	<path class="st2" d="M405-385.4c3.7-2.4,8.2-3.6,13.4-3.6v13.1h-3c-12.6,0-18.9,7.7-18.9,23.1v41.5h-11.3v-76.3h11.3v12.4
		C398.5-379.6,401.3-383,405-385.4z"/>
</g>
<g>
	<g>
		<path class="st3" d="M71.9,211.4l1.3,2.4c-2.4,1.1-4.7,2.1-6.7,3.8C66.8,215.6,70.5,212.7,71.9,211.4z"/>
		<path class="st3" d="M85.2,214.7c8.4-11.1,19.7-18,32.8-22.4l0.4,1c-8.5,2-15.8,6.7-22.5,12.2c-1.5,1.2-3.1,2.4-4.5,3.8
			c-1.8,0.9-3.5,3.1-4.8,4.6C86.2,214.3,85.8,214.7,85.2,214.7z"/>
		<path class="st4" d="M73.3,213.8c2.4,4.3,4.5,8.8,6.8,13.2c1.4,2.7,3.1,5.5,4.2,8.4c-5.4-1.1-17-3.3-21.1-6.7
			c-0.7-0.6-1.4-1.4-1.4-2.4c-0.2-3.3,2.9-6.4,4.9-8.7C68.6,215.8,70.9,214.9,73.3,213.8z"/>
		<path class="st3" d="M197.3,189.6c7.8,5.6,17.7,15.9,19.4,25.8c0.4,2.2,0.3,4.4-1,6.3c-1,1.4-2.3,2.4-3.6,3.4
			c-0.1-0.4-0.2-0.8-0.3-1.3c-2.3-7.7-10.6-18.9-17.6-22.8C195.1,197.2,196.2,193.4,197.3,189.6z"/>
		<path class="st3" d="M128.7,174.9c20.8,2.5,39.5-2.2,59.2,8c-3,7.4-6.3,14.9-8.8,22.4c-1-1-2.1-2-3.2-2.9
			c-11.5-9-28-11.4-42.1-9.7c-0.5-0.7-1.3-1-2.2-1.1c-3.9-0.8-9.5,0.3-13.2,1.6l-0.4-1c10.2-3.5,24.2-4.9,34.9-3.7
			c4.9,0.6,9.8,1.8,14.6,2.9c-6.4-4.5-21.5-7.7-29.4-9c-2.7-0.4-6-0.4-8.6-1.2l0.3-0.3c11.4,1,23.3,3.5,33.8,8
			c2.1,0.9,4.1,2.1,6.2,3.1c3.8,1.8,7.6,3.4,11.1,5.7l0.3,0.2c0.3-0.5,0.5-1,0.8-1.5c0.4-0.8,1.5-2.7,1.1-3.4
			c-0.9-1.6-4.4-3-6.1-3.8c-9.7-4.8-19.9-8.1-30.5-10.4c-4-0.9-14.4-2.2-17.4-3.8C129,175.1,128.9,175,128.7,174.9z"/>
		<path class="st5" d="M169.3,34.1c0.1,1.3,2.9,5.6,3.6,7.2c6.2,12.9,8.8,25.4,7.3,39.8c-2.1,20.6-11.5,35-27.7,47.2
			c-10.3,7.7-20.6,14.5-25,27.2l3.1-3.4c11.2-12.8,28-16.6,40.4-28c10-9.2,15.7-22.6,16.2-36.2C187.8,69.8,181.6,47.5,169.3,34.1z"
			/>
		<path class="st5" d="M49.4,127.2c3.6,5,6.2,11,9.4,16.3c3.9,6.5,7.7,13.2,11.8,19.7c2.7,4.3,5.9,8.5,8,13.1
			c1.7,3.5,4,8.7,3.4,12.7c-0.4,2.4-1.5,4.4-3,6.2c-1.5,2-3.6,3.9-4.4,6.4c-0.3,0.8-0.4,1.7-0.3,2.6c0.6,4.2,5,11.8,7.1,15.8
			l0.4,0.7c2.9,5.4,5.8,10.8,9,16c-2.2-0.3-4.4-0.8-6.6-1.2c-1.1-2.9-2.8-5.7-4.2-8.4c-2.2-4.4-4.4-8.9-6.8-13.2l-1.3-2.4
			c-1.3-2.7-2.7-5.3-5.7-6.3c-1.7-0.6-3.4-0.5-5.2-0.4c-7.2,0.4-10.8-0.4-14.4-7.1c-4.8-8.9-8-20.2-11.5-29.8
			c-3.4-9.5-7.2-19-10-28.7l0.2,0.3c2.9,4.4,5,9.9,7.3,14.7l12.5,26.2c1,2.1,2,4.2,2.9,6.3c0.5,1.2,1,2.6,1.6,3.8
			c0.3,0.7,0.7,1,1.4,1.3c0.6-0.1,0.7-0.1,1.1-0.5c0.1-0.6,0.1-1.1-0.1-1.7c-0.5-1.5-1.3-3-1.9-4.4c-1.2-2.9-2.5-5.9-3.7-8.8
			c-3.4-8.7-6.8-17.5-10.1-26.3c-1.7-4.4-4-9-4.9-13.6c3.3,5.1,5.7,11,8.3,16.6l11.5,24.7c1.9,4.1,3.7,8.3,5.7,12.3
			c0.8-0.6,1.7-1.1,2.5-1.7c-4.8-11.3-9.5-22.6-14-34c-2.8-6.9-5.7-13.8-8-20.9l0.2,0.3c3.5,5.3,6.1,11.6,9,17.3
			c3.8,7.6,7.9,15.1,11.7,22.7c1.7,3.4,4,9.6,6.3,12.3c0.5-0.1,0.5-0.2,0.8-0.6c0.1-0.8,0-1.3-0.3-2.1c-0.6-1.5-1.5-2.8-2.1-4.3
			c-1.2-2.5-2.3-5.1-3.4-7.7c-3.1-7.3-5.8-14.8-8.8-22.1c-2.5-6.2-5.4-12.8-6.9-19.3c3.5,6.4,6.4,13.1,9.5,19.7
			c5.3,11.4,10.7,22.7,16.2,34c0.8-0.5,1.7-1,2.5-1.6l-13-31.6C55.8,142.6,52.2,134.9,49.4,127.2z"/>
		<path class="st5" d="M187.9,183c2.3-5.6,4.1-11.4,6.2-17.1c5.6-15.6,11.7-31.7,13.6-48.2c0.2-1.9,0.4-3.9,0.5-5.8s0.1-3.9,0-5.8
			s-0.2-3.9-0.4-5.8c-0.2-1.9-0.5-3.9-0.9-5.8c-0.2-0.8-0.8-2.2,0.2-2.5c2.7-0.9,7.1,0.9,9.3,2.4c7.1,4.8,10.2,13.6,11.7,21.7
			c2.5,13.5-0.8,32.4-8.7,43.6c-2.4,3.4-5.4,6.2-8.5,9c-7.6,6.7-10.3,11.4-13.6,21c-1.2,3.8-2.2,7.6-3.3,11.4
			c7.1,3.9,15.4,15.1,17.6,22.8c0.1,0.4,0.2,0.8,0.3,1.3c-2.7,1.6-5.4,2.8-8.3,4c-2.1,0.8-4.3,1.6-6.4,2.3c-2.4,0.6-4.8,1.3-7.2,2
			l-2.1,0.6l-6.8,1.6c2.4-21.6,8.5-43.7,18.8-62.9c-1.7,2.1-3.4,4.2-4.9,6.5c-1.5,2.2-2.9,4.5-4.2,6.9c-6,11.1-10.5,23.4-14.5,35.3
			c-1.7,5.1-3.5,10.3-4.4,15.6l-3.7,0.4c0.5-1.5,0.9-3,1.4-4.5c1.1-4.1,2.5-8.1,3.7-12.1l1.2-3.4l4.5-11.9
			C181.6,197.8,184.9,190.4,187.9,183z"/>
		<path class="st3" d="M188.6,228.5c1.1,1.6,0.9,3.2,1.4,4.9l-2.1,0.6C188.2,232.1,188.3,230.3,188.6,228.5z"/>
		<path class="st4" d="M190.8,215.6c3.1,4.2,5.2,10.6,6.4,15.7c-2.4,0.6-4.8,1.3-7.2,2c-0.5-1.7-0.3-3.3-1.4-4.9
			C188.5,225.3,190.2,219.2,190.8,215.6z"/>
		<path class="st3" d="M192.8,206.9c6.1,5.2,9.1,14.6,10.9,22.1c-2.1,0.8-4.3,1.6-6.4,2.3c-1.2-5.1-3.3-11.5-6.4-15.7
			C191.4,212.7,192,209.8,192.8,206.9z"/>
		<path class="st6" d="M212.1,96.5c1.1,0.4,2.1,1.1,3,1.9c6.2,5.9,9.1,17.5,9.3,25.8c0.4,14.4-4.7,28.3-14.6,38.7
			c-0.7,0.7-1.5,1.3-2.3,1.9c6-6.7,10-14.4,12.1-23.1C223.4,126,220.4,110.2,212.1,96.5z"/>
		<path class="st4" d="M194.1,201c7.1,3.9,15.4,15.1,17.6,22.8c0.1,0.4,0.2,0.8,0.3,1.3c-2.7,1.6-5.4,2.8-8.3,4
			c-1.8-7.6-4.7-16.9-10.9-22.1C193.1,204.9,193.6,203,194.1,201z"/>
		
			<linearGradient id="SVGID_1_" gradientUnits="userSpaceOnUse" x1="-302.8029" y1="-365.2669" x2="-301.6409" y2="-357.4783" gradientTransform="matrix(4.8828 0 0 4.8828 1605.969 1977.557)">
			<stop  offset="0" style="stop-color:#FF5722"/>
			<stop  offset="1" style="stop-color:#C71E07"/>
		</linearGradient>
		<path class="st7" d="M118.4,193.3c3.7-1.2,9.3-2.3,13.2-1.6c0.8,0.2,1.6,0.4,2.2,1.1c14.1-1.7,30.6,0.7,42.1,9.7
			c1.1,0.9,2.2,1.9,3.2,2.9l-4.5,11.9l-1.2,3.4c-1.2,4-2.6,8-3.7,12.1c-0.5,1.5-0.9,3-1.4,4.5c-13.7,1.8-27.2,2.6-41,2.6
			c-5.5,0-11.2-0.1-16.6-0.7c-2.9-0.4-5.9-0.6-8.8-0.9l-2.6-0.4c-2.8-0.5-5.6-0.9-8.5-1.3c-3.2-5.2-6.1-10.6-9-16l-0.4-0.7
			c1.3-1.7,2.5-3.5,3.8-5.2c0.6,0,1-0.4,1.5-0.8c1.3-1.5,3-3.7,4.8-4.6c1.3-1.4,3-2.6,4.5-3.8C102.6,200,109.8,195.2,118.4,193.3z"
			/>
		<path class="st3" d="M85.2,214.7c0.6,0,1-0.4,1.5-0.8l-0.4,1.2l0.2,0.1l1.3-0.7c-1.9,2-3.9,4.3-6,6.1l-0.4-0.7
			C82.7,218.2,83.9,216.4,85.2,214.7z"/>
		<path class="st8" d="M91.5,209.3c2.1,0.1,5.2-5.4,10.9-5.2c-5.2,3.1-9.9,6.6-14.6,10.5l-1.3,0.7l-0.2-0.1l0.4-1.2
			C88,212.4,89.7,210.2,91.5,209.3z"/>
		
			<linearGradient id="SVGID_00000080207090318911900180000011634306006520099976_" gradientUnits="userSpaceOnUse" x1="-305.6291" y1="-363.4601" x2="-306.3983" y2="-364.8201" gradientTransform="matrix(4.8828 0 0 4.8828 1605.969 1977.557)">
			<stop  offset="0" style="stop-color:#FCE320"/>
			<stop  offset="1" style="stop-color:#FCF775"/>
		</linearGradient>
		<path style="fill:url(#SVGID_00000080207090318911900180000011634306006520099976_);" d="M118.4,193.3c3.7-1.2,9.3-2.3,13.2-1.6
			c0.8,0.2,1.6,0.4,2.2,1.1c-11.7,2.2-20.8,5.8-31.4,11.3c-5.7-0.2-8.8,5.3-10.9,5.2c1.3-1.4,3-2.6,4.5-3.8
			C102.6,200,109.8,195.2,118.4,193.3z"/>
		
			<linearGradient id="SVGID_00000178192347508341107360000002976861203836077204_" gradientUnits="userSpaceOnUse" x1="-300.7624" y1="-357.5373" x2="-301.6379" y2="-363.6281" gradientTransform="matrix(4.8828 0 0 4.8828 1605.969 1977.557)">
			<stop  offset="0" style="stop-color:#F3B000"/>
			<stop  offset="1" style="stop-color:#FCEE36"/>
		</linearGradient>
		<path style="fill:url(#SVGID_00000178192347508341107360000002976861203836077204_);" d="M100.5,229.8c0.9-4.8,3.7-9.8,6.8-13.5
			c7.2-8.8,18-13.9,29.3-14.9c10.9-1,22.2,2,30.7,9c2.5,2.1,4.5,4.8,7,6.8c0.1,0.1,0.1,0.1,0.2,0.2l-1.2,3.4
			c-0.2-0.3-0.4-0.5-0.6-0.8s-0.4-0.5-0.7-0.8c-0.2-0.3-0.4-0.5-0.7-0.8c-0.2-0.3-0.5-0.5-0.7-0.8s-0.5-0.5-0.7-0.7
			s-0.5-0.5-0.7-0.7s-0.5-0.5-0.7-0.7c-0.3-0.2-0.5-0.5-0.8-0.7s-0.5-0.5-0.8-0.7s-0.5-0.4-0.8-0.7c-0.3-0.2-0.5-0.4-0.8-0.6
			c-0.3-0.2-0.6-0.4-0.8-0.6c-0.3-0.2-0.6-0.4-0.8-0.6c-0.3-0.2-0.6-0.4-0.9-0.6c-0.3-0.2-0.6-0.4-0.9-0.6c-0.3-0.2-0.6-0.4-0.9-0.5
			c-0.3-0.2-0.6-0.3-0.9-0.5s-0.6-0.3-0.9-0.5s-0.6-0.3-0.9-0.5s-0.6-0.3-0.9-0.4c-0.3-0.1-0.6-0.3-0.9-0.4c-0.3-0.1-0.6-0.3-1-0.4
			c-0.3-0.1-0.6-0.3-1-0.4c-0.3-0.1-0.6-0.2-1-0.3c-0.3-0.1-0.7-0.2-1-0.3s-0.7-0.2-1-0.3s-0.7-0.2-1-0.3s-0.7-0.2-1-0.2
			c-0.3-0.1-0.7-0.2-1-0.2c-0.3-0.1-0.7-0.1-1-0.2c-0.3-0.1-0.7-0.1-1-0.2c-0.3-0.1-0.7-0.1-1-0.1c-10.6-1.4-20.6,1.4-29,7.9
			c-6.2,4.8-10.4,10.4-13.3,17.6c-0.6,2.7-1.3,5.4-1.4,8.2l-2.6-0.4C99.3,235.2,99.7,232.3,100.5,229.8z"/>
		<path class="st3" d="M100.5,229.8c0.5,2.3-1.3,4.6-0.4,6.9c0.5,0.4,0.5,0.4,1.1,0.5c0.9-1.8,0.7-4.9,1.6-7l0.4-0.2
			c-0.6,2.7-1.3,5.4-1.4,8.2l-2.6-0.4C99.3,235.2,99.7,232.3,100.5,229.8z"/>
		
			<linearGradient id="SVGID_00000070805774189222702840000011667511431331016871_" gradientUnits="userSpaceOnUse" x1="-300.9196" y1="-363.1177" x2="-300.6442" y2="-356.4095" gradientTransform="matrix(4.8828 0 0 4.8828 1605.969 1977.557)">
			<stop  offset="0" style="stop-color:#FF5722"/>
			<stop  offset="1" style="stop-color:#C71E07"/>
		</linearGradient>
		<path style="fill:url(#SVGID_00000070805774189222702840000011667511431331016871_);" d="M103.3,230.1c2.9-7.2,7.1-12.8,13.3-17.6
			c8.5-6.5,18.4-9.3,29-7.9c0.3,0,0.7,0.1,1,0.2c0.3,0.1,0.7,0.1,1,0.2c0.3,0.1,0.7,0.1,1,0.2c0.3,0.1,0.7,0.1,1,0.2
			c0.3,0.1,0.7,0.2,1,0.2c0.3,0.1,0.7,0.2,1,0.3s0.7,0.2,1,0.3s0.7,0.2,1,0.3s0.6,0.2,1,0.3c0.3,0.1,0.6,0.2,1,0.4
			c0.3,0.1,0.6,0.3,1,0.4c0.3,0.1,0.6,0.3,0.9,0.4c0.3,0.1,0.6,0.3,0.9,0.4c0.3,0.2,0.6,0.3,0.9,0.5s0.6,0.3,0.9,0.5
			s0.6,0.3,0.9,0.5s0.6,0.3,0.9,0.5s0.6,0.4,0.9,0.6c0.3,0.2,0.6,0.4,0.9,0.6c0.3,0.2,0.6,0.4,0.8,0.6c0.3,0.2,0.6,0.4,0.8,0.6
			c0.3,0.2,0.5,0.4,0.8,0.6c0.3,0.2,0.5,0.4,0.8,0.7c0.3,0.2,0.5,0.4,0.8,0.7c0.3,0.2,0.5,0.5,0.8,0.7s0.5,0.5,0.7,0.7
			s0.5,0.5,0.7,0.7s0.5,0.5,0.7,0.7c0.2,0.3,0.5,0.5,0.7,0.8s0.5,0.5,0.7,0.8s0.4,0.5,0.7,0.8c0.2,0.3,0.4,0.5,0.6,0.8
			c-1.2,4-2.6,8-3.7,12.1c-2.2-3.4-4.6-6.9-7.9-9.2l-0.3,0.3c-2.1-0.2-4.7-2.1-6.7-3c-2.2-1-4.4-1.8-6.7-2.2
			c-4.9-1-10.2-1.3-15.2-0.8c-1.9,0.2-4.2,1-6,0.8c-0.1,0-0.3,0-0.4,0c-4.7,1.2-9.5,7.1-11.9,11.1c-1.8,3.1-2.5,6.2-3.8,9.5
			c-2.9-0.4-5.9-0.6-8.8-0.9C102,235.4,102.6,232.8,103.3,230.1z"/>
		
			<linearGradient id="SVGID_00000003786893536732827320000002512331202513716102_" gradientUnits="userSpaceOnUse" x1="-299.1189" y1="-358.4184" x2="-299.7379" y2="-361.0987" gradientTransform="matrix(4.8828 0 0 4.8828 1605.969 1977.557)">
			<stop  offset="0" style="stop-color:#F6C204"/>
			<stop  offset="1" style="stop-color:#FBF559"/>
		</linearGradient>
		<path style="fill:url(#SVGID_00000003786893536732827320000002512331202513716102_);" d="M126.3,218.7c8-3.6,16.9-4.1,25.2-1
			c3.6,1.4,7.3,3.4,10.2,5.9l-0.3,0.3c-2.1-0.2-4.7-2.1-6.7-3c-2.2-1-4.4-1.8-6.7-2.2c-4.9-1-10.2-1.3-15.2-0.8
			c-1.9,0.2-4.2,1-6,0.8C126.6,218.7,126.5,218.7,126.3,218.7z"/>
		<path class="st3" d="M126.3,218.7c0.1,0,0.3,0,0.4,0c1.9,0.1,4.1-0.6,6-0.8c5-0.6,10.3-0.2,15.2,0.8c2.3,0.5,4.6,1.2,6.7,2.2
			c2,0.9,4.6,2.8,6.7,3l0.3-0.3c3.4,2.3,5.8,5.8,7.9,9.2c-0.5,1.5-0.9,3-1.4,4.5c-13.7,1.8-27.2,2.6-41,2.6
			c-5.5,0-11.2-0.1-16.6-0.7c1.3-3.2,2-6.4,3.8-9.5C116.8,225.7,121.6,219.9,126.3,218.7z"/>
		<path class="st13" d="M126,281.6c0.2,0,0.5,0,0.7,0c16.1-0.3,32.4-0.3,48.4,0.6c17.7,1,35.2,2.9,52.7,5.6
			c8.8,1.3,16.7,2.3,25.5,4.2c4,0.9,9.4,0.3,12.4,3.4c1.8,1.8,2.5,4.3,2.5,6.8c0,3.1-0.5,6.9-2.9,9.1c-2.1,2-5.2,2.5-8,2.4
			c-4.7-0.2-9.4-1.6-14.1-2.5s-9.4-1.5-14.1-2.1c-14.9-2-29.8-4.1-44.7-5.5c-11.1-1-22.1-1.5-33.2-1.9c-28.7-0.4-57.4,0.4-85.8,4.6
			c-8.9,1.4-17.8,2.9-26.7,4.7c-5.5,1.1-11.2,2.7-16.8,3.4c-3.2,0.4-5.9,0-8.5-2.1c-2.2-1.8-3.7-4.3-4-7.2s0.7-6,2.7-8.2
			c3.9-4.3,15.4-5.1,21.1-6.1c18.7-3.3,37.5-5.8,56.5-7.4C101.8,282.5,113.9,282.1,126,281.6z"/>
		
			<linearGradient id="SVGID_00000136407570679463248580000011881074599845612958_" gradientUnits="userSpaceOnUse" x1="56.3283" y1="103.7926" x2="54.9166" y2="313.5576" gradientTransform="matrix(1 0 0 -1 0 379.5905)">
			<stop  offset="0" style="stop-color:#C71E07"/>
			<stop  offset="0.9755" style="stop-color:#FF5722"/>
		</linearGradient>
		<path style="display:none;fill:url(#SVGID_00000136407570679463248580000011881074599845612958_);" d="M110.2,49.8
			c0-0.4,0.1-0.8,0.1-1.2c0-0.4,0-0.8,0-1.2c0-0.4,0-0.8,0-1.2c0-0.4-0.1-0.8-0.1-1.2c0-0.4-0.1-0.8-0.2-1.2
			c-0.1-0.4-0.1-0.8-0.2-1.2c-0.1-0.4-0.2-0.8-0.3-1.2c-0.1-0.4-0.2-0.8-0.3-1.2c-0.1-0.4-0.2-0.7-0.4-1.1
			c-7.9,1.8-15.7,4.3-23.1,7.5c-8.3,3.5-16.3,7.8-23.8,12.9c-7.4,5-14.4,10.7-20.7,17.1c-6.3,6.3-12.1,13.3-17.1,20.7
			c-5.1,7.5-9.4,15.5-12.9,23.8c-3.6,8.4-6.3,17.3-8.2,26.3c-1.9,9.2-2.8,18.7-2.8,28.2s1,19,2.8,28.2c1.8,9,4.6,17.8,8.2,26.3
			c3.5,8.3,7.8,16.3,12.9,23.8c5,7.4,10.7,14.4,17.1,20.7c2.9,2.9,6,5.8,9.2,8.4c8.9-1.3,17.9-2.5,26.9-3.4
			c-35.2-21.3-58.7-59.9-58.7-103.9c0-56,37.9-103.1,89.5-117.1c0.9-2.3,1.5-4.6,1.9-7C110.2,50.6,110.2,50.2,110.2,49.8z"/>
		
			<linearGradient id="SVGID_00000011031597426751995050000015575261926652964252_" gradientUnits="userSpaceOnUse" x1="231.4416" y1="103.201" x2="232.7617" y2="306.3871" gradientTransform="matrix(1 0 0 -1 0 379.5905)">
			<stop  offset="0" style="stop-color:#C71E07"/>
			<stop  offset="0.9284" style="stop-color:#FF5722"/>
		</linearGradient>
		<path style="display:none;fill:url(#SVGID_00000011031597426751995050000015575261926652964252_);" d="M273.7,147
			c-1.8-9-4.6-17.8-8.2-26.3c-3.5-8.3-7.8-16.3-12.9-23.8c-5-7.4-10.7-14.4-17.1-20.7c-6.3-6.3-13.3-12.1-20.7-17.1
			c-7.5-5.1-15.5-9.4-23.8-12.9c-0.8-0.3-1.6-0.7-2.4-1c2.2,7.2,3.6,14.8,4.1,22.2c38.8,20.3,65.3,60.9,65.3,107.7
			c0,44-23.4,82.5-58.4,103.8c8.6,0.9,17.1,2.1,25.6,3.4c0.4,0.1,0.7,0.1,1.1,0.2c3.2-2.7,6.3-5.5,9.2-8.4
			c6.3-6.3,12.1-13.3,17.1-20.7c5.1-7.5,9.4-15.5,12.9-23.8c3.6-8.4,6.3-17.3,8.2-26.3c1.9-9.2,2.8-18.7,2.8-28.2
			S275.5,156.2,273.7,147z"/>
		<path class="st3" d="M173.5,76c0.5-3,0-6.2-0.4-9.1c-0.1-0.7-0.2-1.3-0.3-2c-0.1-0.7-0.2-1.3-0.4-2c-0.1-0.7-0.3-1.3-0.4-2
			c-0.2-0.7-0.3-1.3-0.5-2s-0.4-1.3-0.6-2s-0.4-1.3-0.6-1.9s-0.4-1.3-0.7-1.9c-0.2-0.6-0.5-1.3-0.7-1.9c-0.3-0.6-0.5-1.3-0.8-1.9
			s-0.6-1.2-0.9-1.9s-0.6-1.2-0.9-1.8c-0.3-0.6-0.6-1.2-1-1.8c-0.3-0.6-0.7-1.2-1-1.8c-0.4-0.6-0.7-1.2-1.1-1.7
			c-0.4-0.6-0.8-1.1-1.1-1.7c-0.4-0.6-0.8-1.1-1.2-1.7c-7.4-10-17-16.8-27.6-22.8c8.8,11,14.9,23.8,13.3,38.3
			c-1.3,11.6-6.7,20.6-13.8,29.5c2.7-10.8,4-21.5-2-31.5c-3.5-5.9-8.4-9.8-13.9-13.6c0.4,0.5,0.7,1,1.1,1.5c0.3,0.5,0.7,1,1,1.5
			s0.6,1,0.9,1.6c0.3,0.5,0.6,1.1,0.8,1.6c0.3,0.5,0.5,1.1,0.7,1.6c0.2,0.6,0.5,1.1,0.7,1.7s0.4,1.1,0.6,1.7s0.3,1.2,0.5,1.7
			c0.2,0.6,0.3,1.2,0.4,1.8c0.1,0.6,0.2,1.2,0.3,1.8s0.2,1.2,0.2,1.8c0.1,0.6,0.1,1.2,0.1,1.8c0,0.6,0.1,1.2,0.1,1.8
			c0,0.6,0,1.2,0,1.8c0,0.6-0.1,1.2-0.1,1.8c-0.1,0.6-0.1,1.2-0.2,1.8c-2,14.4-11.6,24.9-18.8,36.9c-13.8,23.2-6.4,49.8,8.8,70.1
			c2.1,2.9,4.4,5.9,6.9,8.4c-0.4-1-0.7-2.2-1.3-3.2c-1.2-3.6-2-7-1.8-10.7c0.2-5,1.6-10,3.7-14.6c7.5-16.8,22.1-23.5,34.9-35.3
			C167.7,105.1,172.9,91.6,173.5,76z"/>
		<path class="st16" d="M157.8,48.4c-0.2,2,0.9,4.8,1.3,6.8c0.1,0.7,0.2,1.3,0.3,2c0.1,0.7,0.2,1.3,0.2,2c0.1,0.7,0.1,1.3,0.1,2
			s0,1.3,0,2s0,1.3-0.1,2c0,0.7-0.1,1.3-0.2,2s-0.2,1.3-0.3,2c-0.1,0.7-0.2,1.3-0.4,2c-3.6,17.1-17.1,27.2-30.3,36.8
			c-0.8,0.6-3,1.8-3.3,2.7h0.4c3.2-1.7,6.6-2.8,9.9-4.1c9.7-3.9,17.7-11.2,21.8-20.9c0.2-0.4,0.3-0.7,0.4-1.1s0.3-0.7,0.4-1.1
			s0.3-0.8,0.4-1.1c0.1-0.4,0.2-0.8,0.4-1.1c0.1-0.4,0.2-0.8,0.3-1.1c0.1-0.4,0.2-0.8,0.3-1.2c0.1-0.4,0.2-0.8,0.3-1.2
			c0.1-0.4,0.2-0.8,0.3-1.2c0.1-0.4,0.2-0.8,0.2-1.2c0.1-0.4,0.1-0.8,0.2-1.2c0.1-0.4,0.1-0.8,0.2-1.2c0.1-0.4,0.1-0.8,0.1-1.2
			c0-0.4,0.1-0.8,0.1-1.2c0-0.4,0.1-0.8,0.1-1.2c0-0.4,0-0.8,0.1-1.2c0-0.4,0-0.8,0-1.2c0-0.4,0-0.8,0-1.2c0-0.4,0-0.8,0-1.2
			c0-0.4,0-0.8-0.1-1.2c0-0.4-0.1-0.8-0.1-1.2c0-0.4-0.1-0.8-0.1-1.2c0-0.4-0.1-0.8-0.1-1.2c-0.1-0.4-0.1-0.8-0.2-1.2
			c-0.1-0.4-0.1-0.8-0.2-1.2c-0.1-0.4-0.1-0.8-0.2-1.2c-0.1-0.4-0.2-0.8-0.3-1.2c-0.1-0.4-0.2-0.8-0.3-1.2c-0.1-0.4-0.2-0.8-0.3-1.2
			c-0.1-0.4-0.2-0.8-0.3-1.1c-0.1-0.4-0.2-0.8-0.4-1.1c-0.1-0.4-0.3-0.8-0.4-1.1C158,49.1,157.9,48.8,157.8,48.4z"/>
		<path class="st13" d="M173.5,76l-0.2-0.1c-0.7,1.4-1.1,3.1-1.6,4.7c-0.5,1.7-1.2,3.2-2,4.8c-5.8,11.6-16.5,19.7-28.8,23.3
			c-5.1,1.5-9.5,1.4-14.3,2.6c-5.8,1.4-10.4,6.5-13.1,11.6c-6.2,11.4-5.8,26.2-2.1,38.3c1.1,3.5,4.5,13.2,7.8,15.1
			c0.1,0,0.2,0.1,0.2,0.1c-1.2-3.6-2-7-1.8-10.7c0.2-5,1.6-10,3.7-14.6c7.5-16.8,22.1-23.5,34.9-35.3
			C167.7,105.1,172.9,91.6,173.5,76z"/>
		<path class="st5" d="M217.9,209.8c1.7,1.1,3.3,2.2,4.5,3.7c2.8,3.4,2,7.8,1.5,11.8c-2,16.9-7,32.6-17.9,45.8
			c-2.3,2.7-4.7,5.6-7.5,7.8c-6.6-1.2-13.7-1.5-20.4-2c-21.9-1.7-44.2-2.3-66.1-1c-5.2,0.7-10.7,0.5-15.9,1
			c-1.1,0.1-2.6,0.1-3.6,0.5c-4.4,0.4-8.8,0.9-13.2,1.3c-5.2-3.6-10.9-10.7-14.3-16c-5.6-8.6-12.2-24-9.7-34.5
			c1-4.2,4.3-6.3,7.7-8.4c-1.8,1.8-3.6,3.7-4.4,6.1c-0.6,1.9-0.7,4.2,0.3,6c0.4,0.7,0.9,1.3,1.6,1.7c2.3,1.5,8.5,3.1,11.5,3.9
			c32.8,9.1,82.8,7.6,116.1,0c8.4-1.9,17.4-4.3,24.9-8.6c3.5-2,7.4-4.7,8.4-8.8C222.1,216.2,219.8,212.9,217.9,209.8z"/>
		<path class="st17" d="M131.3,248.9c3.3-0.4,6.7-0.3,10-0.5c4.6-0.3,9.2-0.7,13.7-1.2c4.4-0.5,8.8-1.1,13.2-1.8
			c1.6-0.2,3.6-0.9,5.2-0.8c-4.5,1.5-9.2,2.5-13.8,3.7c-4.5,1.2-9,2.5-13.4,3.9c-3,1-5.9,2.3-8.8,3.5c-9.1,3.9-18.9,8.5-25,16.7
			c-0.5,0.7-1.3,1.5-1.6,2.3c-0.1,0.3-0.1,0.4-0.2,0.6l0.2,0.3l1.1,0.1c-5.2,0.7-10.7,0.5-15.9,1c-1.1,0.1-2.6,0.1-3.6,0.5
			c-1.4-1.7-4.1-3-5.9-4.4c-2.6-2-5-4.1-7.3-6.4c17.5-0.3,26.3-7.1,41.5-13.2c4.8-1.9,9.8-3.2,14.9-4.3L131.3,248.9z"/>
		<path class="st6" d="M61.1,238.3c20.5,11.2,47.5,10.8,70.2,10.6l4.2,0.1c-5.1,1.1-10.1,2.4-14.9,4.3c-15.2,6.1-24,12.9-41.5,13.2
			C70.4,259.1,65.1,248.9,61.1,238.3z"/>
		<path class="st18" d="M89.3,278c11.9-1,23.9-1.4,35.6-1.8h0.9c0.3,0,0.5,0,0.8,0c6.7-0.1,12.7-0.2,18.3-0.2
			c11.2,0,21.2,0.3,30.5,0.8l0,0c9.2,0.5,18.4,1.3,27.6,2.3c35-21.3,58.4-59.8,58.4-103.8c0-67-54.3-121.4-121.4-121.4
			S18.6,108.2,18.6,175.3c0,44.1,23.5,82.7,58.7,103.9C81.4,278.7,85.3,278.3,89.3,278L89.3,278z"/>
	</g>
	<g>
		<path class="st3" d="M297.3,301.1c-0.2,0.1-0.3,0.1-0.5,0.1s-0.5,0-1,0c-1.2,0-2.6-0.2-4.2-0.6c-1.6-0.4-3.1-0.9-4.7-1.4
			c-1.5-0.6-2.8-1.2-3.9-1.9s-1.7-1.3-2-1.8c-0.1-1.2-0.1-2.5-0.1-3.7c0-1.3,0-2.5,0-3.7c0-9.6,0.7-19.7,2.1-30.2
			c1.4-10.5,3.8-21.9,7-34.1c0.3-1.2,0.7-2.7,1.1-4.6c0.4-1.9,0.8-3.9,1.2-6c-2.1,1.6-4.5,4.2-7.4,7.8c-2.8,3.6-5.8,7.8-9,12.7
			c-3.1,4.9-6.3,10.2-9.4,16s-6,11.7-8.6,17.7c-2.6,6-4.8,11.9-6.7,17.8c-1.9,5.9-3,11.3-3.4,16.3c-4.1-1.2-7-2.4-8.6-3.6
			c-1.6-1.2-2.4-2.7-2.4-4.4c0-1.6,0.5-3.7,1.4-6.6c0.9-2.8,2.3-6.2,4-10.1c1.7-3.9,3.8-8.2,6.3-13s5.3-9.9,8.3-15.4
			c3.4-6.3,6.8-12.2,10.1-17.7c3.3-5.5,6.6-10.5,9.8-15c3.2-4.5,6.3-8.4,9.4-11.6c3.1-3.3,6.1-5.8,9.1-7.5c1.2,0,2.8,0.3,4.8,0.9
			s4,1.3,5.9,2.2c1.9,0.9,3.7,1.7,5.2,2.6c1.5,0.9,2.3,1.7,2.5,2.3c-1.2,2.4-2.6,6-4.3,10.9c-1.6,4.8-3.3,10.3-5,16.4
			c-1.7,6.1-3.3,12.6-4.8,19.5c-1.5,6.9-2.7,13.4-3.6,19.7c2-4.7,4.3-9.7,6.9-14.8c2.6-5.1,5.4-10.2,8.3-15.3c2.9-5,5.9-9.9,9-14.7
			c3.1-4.7,6.1-9.1,9-13s5.7-7.3,8.2-10.3c2.5-2.9,4.8-5.1,6.8-6.5c1.2,0,2.8,0.3,4.8,0.9s4,1.3,5.9,2.2c1.9,0.9,3.7,1.7,5.2,2.6
			c1.5,0.9,2.3,1.7,2.5,2.3c-2.8,4.9-5.2,10.9-7.2,18c-2.1,7.1-3.8,14.5-5.2,22.2c-1.4,7.8-2.5,15.4-3.2,23.1
			c-0.7,7.6-1.1,14.5-1.1,20.5c0,2,0,4,0,6.2s0.1,4.4,0.3,6.7c-1.2,0-2.7-0.2-4.3-0.5c-1.7-0.3-3.3-0.7-4.9-1.2s-3-1.1-4.3-1.7
			s-2.2-1.4-2.7-2.1c-0.1-1.2-0.1-2.5-0.1-3.7c0-1.3,0-2.5,0-3.7c0-9.6,0.7-19.7,2.1-30.2c1.4-10.5,3.8-21.9,7-34.1
			c0.3-1.2,0.7-2.8,1.2-4.9c0.4-2.1,0.9-4.2,1.3-6.5c-2.4,1.2-5.2,3.5-8.2,6.9c-3.1,3.4-6.2,7.5-9.3,12.4
			c-3.1,4.9-6.2,10.3-9.3,16.2c-3.1,5.9-5.8,12-8.3,18.2s-4.5,12.3-6.2,18.4S297.7,296,297.3,301.1z"/>
		<path class="st3" d="M362.6,236.8c2.9-5.5,7-9.7,12.1-12.7s10.8-4.5,17.1-4.5c6.2,0,11.6,1.3,16.2,4c4.6,2.7,8,6,10.2,10.1v-12.9
			h11.9v70.8h-11.9v-13.2c-2.3,4.1-5.8,7.6-10.4,10.3c-4.6,2.7-10,4.1-16.1,4.1c-6.3,0-12-1.6-17.1-4.7c-5.1-3.1-9.1-7.5-12-13.1
			c-2.9-5.6-4.4-12-4.4-19.1C358.2,248.7,359.7,242.3,362.6,236.8z M415,242.1c-2.2-4-5.1-7-8.7-9.1c-3.7-2.1-7.7-3.2-12.1-3.2
			c-4.4,0-8.4,1-12,3.1s-6.5,5.1-8.7,9c-2.2,4-3.2,8.6-3.2,14c0,5.4,1.1,10.1,3.2,14.2c2.2,4,5,7.1,8.7,9.2c3.6,2.1,7.6,3.2,12,3.2
			s8.4-1.1,12.1-3.2c3.7-2.1,6.6-5.2,8.7-9.2s3.2-8.7,3.2-14C418.2,250.7,417.1,246,415,242.1z"/>
		<path class="st3" d="M460.5,290c-4.3-1.9-7.7-4.4-10.2-7.8c-2.5-3.3-3.9-7.1-4.1-11.4h12.2c0.3,3.5,2,6.4,5,8.7
			c3,2.2,6.9,3.4,11.7,3.4c4.5,0,8-1,10.6-3s3.9-4.5,3.9-7.5c0-3.1-1.4-5.4-4.1-6.9c-2.8-1.5-7-3-12.8-4.5
			c-5.3-1.4-9.5-2.8-12.9-4.2c-3.3-1.4-6.2-3.5-8.5-6.3c-2.4-2.8-3.6-6.5-3.6-11.1c0-3.6,1.1-6.9,3.2-10c2.2-3,5.2-5.4,9.2-7.2
			s8.5-2.6,13.6-2.6c7.8,0,14.2,2,19,5.9c4.8,4,7.4,9.4,7.8,16.3h-11.8c-0.3-3.7-1.7-6.7-4.5-8.9c-2.7-2.2-6.4-3.4-10.9-3.4
			c-4.2,0-7.6,0.9-10.1,2.7s-3.7,4.2-3.7,7.1c0,2.3,0.8,4.2,2.3,5.8c1.5,1.5,3.4,2.7,5.7,3.6c2.3,0.9,5.4,1.9,9.5,3
			c5.1,1.4,9.2,2.7,12.4,4.1c3.2,1.3,5.9,3.3,8.2,6s3.5,6.2,3.6,10.5c0,3.9-1.1,7.4-3.2,10.5c-2.2,3.1-5.2,5.5-9.1,7.3
			c-3.9,1.8-8.4,2.6-13.5,2.6C469.6,292.7,464.8,291.8,460.5,290z"/>
		<path class="st3" d="M531.8,230.4v41.8c0,3.4,0.7,5.9,2.2,7.3c1.5,1.4,4,2.1,7.6,2.1h8.7v10h-10.6c-6.5,0-11.5-1.5-14.7-4.5
			c-3.3-3-4.9-8-4.9-14.9v-41.8h-9.2v-9.7h9.2v-17.8h11.8v17.8h18.5v9.7L531.8,230.4L531.8,230.4z"/>
		<path class="st3" d="M628.8,260.5h-56.6c0.4,7,2.8,12.4,7.2,16.4c4.3,3.9,9.6,5.9,15.8,5.9c5.1,0,9.3-1.2,12.7-3.6
			c3.4-2.4,5.8-5.5,7.2-9.5h12.7c-1.9,6.8-5.7,12.3-11.4,16.6s-12.8,6.4-21.2,6.4c-6.7,0-12.7-1.5-18-4.5s-9.5-7.3-12.5-12.9
			c-3-5.6-4.5-12-4.5-19.3c0-7.3,1.5-13.7,4.4-19.3c2.9-5.5,7-9.8,12.3-12.7c5.3-3,11.4-4.5,18.3-4.5c6.7,0,12.7,1.5,17.8,4.4
			c5.2,2.9,9.2,7,12,12.1s4.2,10.9,4.2,17.4C629.1,255.7,629,258,628.8,260.5z M614,239.4c-2-3.2-4.7-5.7-8.1-7.4
			c-3.4-1.7-7.2-2.5-11.3-2.5c-5.9,0-11,1.9-15.2,5.7s-6.6,9-7.2,15.8h44.7C617,246.5,616,242.6,614,239.4z"/>
		<path class="st3" d="M665.3,222.8c3.8-2.2,8.5-3.4,14-3.4v12.2h-3.1c-13.2,0-19.8,7.2-19.8,21.5v38.5h-11.8v-70.8h11.8v11.5
			C658.5,228.2,661.4,225,665.3,222.8z"/>
	</g>
	<g>
		<path class="st5" d="M321.2,186.1c-0.2,0.1-0.5,0.2-0.7,0.2s-0.7,0-1.4,0c-1.6,0-3.5-0.3-5.7-0.8s-4.3-1.2-6.3-1.9
			c-2.1-0.8-3.8-1.6-5.3-2.5s-2.4-1.8-2.7-2.5c-0.1-1.6-0.2-3.3-0.2-5.1c0-1.8,0-3.5,0-5.1c0-13.1,1-26.8,2.9-41.1
			c1.9-14.3,5.1-29.8,9.6-46.4c0.5-1.6,1-3.7,1.5-6.2s1.1-5.2,1.7-8.2c-2.8,2.2-6.2,5.8-10,10.6c-3.9,4.9-7.9,10.6-12.2,17.2
			c-4.3,6.6-8.6,13.9-12.8,21.8c-4.3,7.9-8.2,15.9-11.7,24.1c-3.5,8.1-6.5,16.2-9,24.2s-4.1,15.3-4.7,22.1
			c-5.6-1.6-9.5-3.3-11.7-4.9s-3.3-3.6-3.3-6c0-2.1,0.6-5.1,1.9-9s3.1-8.4,5.4-13.7c2.3-5.3,5.2-11.2,8.6-17.7
			c3.4-6.5,7.1-13.5,11.2-21c4.7-8.6,9.3-16.6,13.8-24.1s8.9-14.3,13.3-20.4c4.3-6.1,8.6-11.4,12.7-15.8c4.2-4.5,8.3-7.8,12.4-10.2
			c1.6,0,3.8,0.4,6.6,1.2c2.8,0.8,5.4,1.8,8.1,3c2.6,1.2,5,2.4,7,3.6s3.2,2.3,3.4,3.1c-1.6,3.3-3.6,8.2-5.8,14.8
			c-2.2,6.6-4.5,14-6.8,22.3s-4.5,17.1-6.5,26.4c-2.1,9.3-3.7,18.2-4.8,26.8c2.7-6.4,5.8-13.1,9.4-20.1s7.4-13.9,11.3-20.7
			c4-6.9,8.1-13.5,12.2-19.9c4.2-6.4,8.2-12.3,12.2-17.7c4-5.3,7.7-10,11.2-14s6.5-6.9,9.2-8.8c1.6,0,3.8,0.4,6.6,1.2
			c2.8,0.8,5.4,1.8,8.1,3c2.6,1.2,5,2.4,7,3.6s3.2,2.3,3.4,3.1c-3.8,6.7-7,14.8-9.8,24.4s-5.2,19.7-7.1,30.2s-3.4,21-4.4,31.4
			s-1.5,19.7-1.5,27.9c0,2.7,0,5.5,0,8.4s0.1,6,0.4,9.1c-1.6,0-3.6-0.2-5.9-0.6c-2.3-0.4-4.5-1-6.7-1.7s-4.1-1.5-5.9-2.4
			c-1.8-0.9-3-1.8-3.7-2.9c-0.1-1.6-0.2-3.3-0.2-5.1c0-1.8,0-3.5,0-5.1c0-13.1,1-26.8,2.9-41.1c1.9-14.3,5.1-29.8,9.6-46.4
			c0.5-1.6,1-3.9,1.6-6.7c0.6-2.8,1.2-5.7,1.8-8.8c-3.3,1.6-7,4.8-11.2,9.4s-8.4,10.3-12.7,16.9c-4.3,6.6-8.5,14-12.6,22.1
			c-4.2,8.1-7.9,16.3-11.2,24.7c-3.3,8.4-6.2,16.7-8.4,25C323.1,171.6,321.7,179.2,321.2,186.1z"/>
		<path class="st5" d="M506.1,130.9h-77c0.6,9.5,3.8,16.9,9.8,22.2c5.9,5.3,13.1,8,21.5,8c6.9,0,12.7-1.6,17.3-4.8
			c4.6-3.2,7.9-7.5,9.8-12.9h17.2c-2.6,9.3-7.7,16.8-15.5,22.6c-7.7,5.8-17.3,8.7-28.8,8.7c-9.1,0-17.3-2-24.5-6.1
			s-12.9-9.9-17-17.5s-6.2-16.3-6.2-26.3s2-18.7,6-26.2s9.6-13.3,16.8-17.3s15.5-6.1,24.9-6.1c9.1,0,17.2,2,24.2,6
			s12.4,9.5,16.3,16.4c3.8,7,5.7,14.8,5.7,23.6C506.6,124.3,506.4,127.5,506.1,130.9z M486.1,102.2c-2.7-4.4-6.4-7.7-11-10
			s-9.8-3.4-15.4-3.4c-8.1,0-15,2.6-20.6,7.7c-5.7,5.2-8.9,12.3-9.8,21.4h60.8C490.1,111.8,488.7,106.6,486.1,102.2z"/>
		<path class="st5" d="M536.5,98.7c4-7.4,9.5-13.2,16.4-17.3c7-4.1,14.7-6.2,23.3-6.2c8.4,0,15.8,1.8,22,5.4s10.8,8.2,13.9,13.7
			V76.8h16.2v96.3h-16.2v-17.9c-3.2,5.6-7.9,10.3-14.1,14c-6.3,3.7-13.6,5.5-21.9,5.5c-8.6,0-16.3-2.1-23.2-6.3
			c-6.9-4.2-12.4-10.1-16.3-17.7c-4-7.6-6-16.3-6-26C530.5,114.8,532.5,106.1,536.5,98.7z M607.7,105.8c-2.9-5.4-6.9-9.5-11.9-12.4
			s-10.5-4.3-16.4-4.3s-11.4,1.4-16.3,4.2s-8.8,6.9-11.8,12.3c-2.9,5.4-4.4,11.7-4.4,19c0,7.4,1.5,13.8,4.4,19.2
			c2.9,5.4,6.9,9.6,11.8,12.5c4.9,2.9,10.4,4.3,16.3,4.3s11.4-1.4,16.4-4.3s8.9-7,11.9-12.5c2.9-5.4,4.4-11.8,4.4-19.1
			C612,117.5,610.6,111.2,607.7,105.8z"/>
		<path class="st5" d="M680,43.1v130h-16v-130H680z"/>
	</g>
</g>
<text transform="matrix(1 0 0 1 -663.9821 810.8597)" style="font-family:'KaushanScript-Regular'; font-size:129.2577px;">M</text>
<text transform="matrix(1 0 0 1 -542.1821 810.8597)" style="font-family:'Poppins-Regular'; font-size:129.2577px;">aster</text>
<text transform="matrix(1 0 0 1 -663.9821 682.3871)" style="font-family:'KaushanScript-Regular'; font-size:175.7207px; letter-spacing:7;">M</text>
<text transform="matrix(1 0 0 1 -489.682 682.3871)" style="font-family:'Poppins-Regular'; font-size:175.7207px; letter-spacing:7;">eal</text>
</svg>
