<?xml version="1.0" encoding="utf-8"?>
<!-- Generator: Adobe Illustrator 26.0.0, SVG Export Plug-In . SVG Version: 6.00 Build 0)  -->
<svg version="1.1" id="Layer_1" xmlns="http://www.w3.org/2000/svg" xmlns:xlink="http://www.w3.org/1999/xlink" x="0px" y="0px"
	 viewBox="0 0 1000 1000" style="enable-background:new 0 0 1000 1000;" xml:space="preserve">
<style type="text/css">
	.st0{display:none;}
	.st1{display:inline;fill:#358438;}
	.st2{display:inline;fill:#FF5722;}
	.st3{fill:#FF5722;}
	.st4{fill:#C14322;}
	.st5{fill:#358438;}
	.st6{fill:#FEFEFE;}
	.st7{fill:url(#SVGID_1_);}
	.st8{fill:#DCD86D;}
	.st9{fill:url(#SVGID_00000101807610498328170890000009681411810201407664_);}
	.st10{fill:url(#SVGID_00000038392021412390022330000006572138512770183319_);}
	.st11{fill:url(#SVGID_00000087406494892914599090000016234334364089443241_);}
	.st12{fill:url(#SVGID_00000173148675662749886790000011714892231203097475_);}
	.st13{fill:#C71E07;}
	.st14{display:none;fill:url(#SVGID_00000072274829183543734750000009757407298201980566_);}
	.st15{display:none;fill:url(#SVGID_00000038412628508796522530000012879187815465638038_);}
	.st16{fill:#FFEB3B;}
	.st17{fill:#C8EAC9;}
	.st18{fill:none;}
</style>
<g class="st0">
	<path class="st1" d="M135.2-112.3c-0.3,0.2-0.6,0.2-0.9,0.2c-0.3,0-0.9,0-1.7,0c-2,0-4.4-0.4-7.1-1.1c-2.7-0.7-5.3-1.6-7.9-2.7
		c-2.5-1.1-4.7-2.3-6.6-3.6c-1.8-1.3-2.9-2.5-3.4-3.4c-0.1-2.3-0.2-4.7-0.2-7.1c0-2.5,0-4.8,0-7.1c0-18.3,1.2-37.5,3.6-57.4
		c2.4-20,6.4-41.6,11.9-64.8c0.6-2.3,1.2-5.2,1.9-8.7c0.7-3.5,1.3-7.3,2.1-11.4c-3.5,3.1-7.6,8.1-12.4,14.8
		c-4.8,6.8-9.9,14.8-15.2,24c-5.3,9.2-10.6,19.4-15.9,30.4c-5.3,11-10.2,22.3-14.5,33.6c-4.4,11.4-8.1,22.6-11.2,33.7
		c-3.1,11.1-5.1,21.4-5.8,30.9c-7-2.3-11.8-4.6-14.5-6.9c-2.7-2.3-4-5.1-4-8.3c0-2.9,0.8-7.1,2.4-12.5c1.6-5.4,3.9-11.8,6.8-19.1
		c2.9-7.4,6.5-15.6,10.7-24.7c4.2-9.1,8.9-18.9,14-29.3c5.8-11.9,11.5-23.1,17.1-33.6c5.6-10.5,11.1-20,16.5-28.5
		c5.4-8.5,10.7-15.9,15.8-22.1c5.2-6.2,10.3-11,15.4-14.2c2,0,4.8,0.6,8.2,1.7c3.4,1.1,6.8,2.5,10,4.2c3.3,1.6,6.2,3.3,8.7,5
		c2.5,1.7,4,3.2,4.3,4.3c-2,4.6-4.4,11.5-7.2,20.6c-2.8,9.2-5.6,19.6-8.4,31.2c-2.8,11.6-5.5,23.9-8.1,36.9c-2.5,13-4.6,25.5-6,37.4
		c3.3-9,7.2-18.4,11.7-28.1c4.4-9.7,9.1-19.4,14.1-29c4.9-9.6,10-18.9,15.2-27.9c5.2-9,10.2-17.2,15.2-24.7
		c4.9-7.4,9.6-13.9,13.9-19.5c4.3-5.6,8.1-9.7,11.5-12.3c2,0,4.8,0.6,8.2,1.7c3.4,1.1,6.8,2.5,10,4.2c3.3,1.6,6.2,3.3,8.7,5
		c2.5,1.7,4,3.2,4.3,4.3c-4.7,9.3-8.7,20.7-12.2,34.1c-3.5,13.4-6.4,27.5-8.8,42.2c-2.4,14.7-4.2,29.3-5.5,43.8
		c-1.2,14.5-1.9,27.4-1.9,38.9c0,3.8,0,7.7,0,11.8c0,4.1,0.1,8.3,0.4,12.8c-2,0-4.5-0.3-7.3-0.9c-2.8-0.6-5.6-1.3-8.3-2.3
		c-2.7-1-5.1-2.1-7.3-3.3c-2.2-1.2-3.7-2.6-4.6-4c-0.1-2.3-0.2-4.7-0.2-7.1c0-2.5,0-4.8,0-7.1c0-18.3,1.2-37.5,3.6-57.4
		c2.4-20,6.4-41.6,11.9-64.8c0.6-2.3,1.2-5.4,2-9.3c0.7-3.9,1.5-8,2.2-12.3c-4.1,2.3-8.7,6.7-13.9,13.1
		c-5.2,6.5-10.4,14.3-15.7,23.6c-5.3,9.2-10.6,19.5-15.7,30.8c-5.2,11.3-9.8,22.8-14,34.5c-4.1,11.7-7.6,23.3-10.5,34.8
		C137.5-132.5,135.7-121.9,135.2-112.3z"/>
	<path class="st1" d="M333-232c-0.6,10.1-2.2,18.9-4.8,26.1c-2.6,7.3-6.4,13.7-11.2,19.1c-4.9,5.5-10.8,10.4-17.8,14.8
		c-7,4.4-15.1,8.7-24.5,12.8c0,1,0,2-0.1,3.1c-0.1,1.1-0.1,2.2-0.1,3.3c0,2.1,0.1,4.3,0.4,6.6c0.3,2.3,0.8,4.4,1.5,6.4
		c0.7,2,1.7,3.6,3.1,4.8c1.3,1.2,3,1.8,5,1.8c3.9,0,7.8-1,11.6-2.9c3.8-2,7.4-4.4,10.8-7.2c3.4-2.9,6.6-6,9.6-9.3
		c3-3.4,5.6-6.4,8-9.2c1.5,1.5,2.7,2.9,3.7,4.2c-6.6,9.8-13.7,18-21.5,24.4c-7.8,6.5-15.2,10.6-22.2,12.4
		c-10-1.3-17.9-5.4-23.5-12.4c-5.6-7-8.4-15.3-8.4-25.2c0-6.7,0.8-13.5,2.5-20.5c1.7-7,4-13.7,7-20.1c3-6.5,6.5-12.6,10.5-18.3
		c4-5.7,8.3-10.7,12.9-15c4.6-4.3,9.3-7.6,14.2-10.1c4.9-2.5,9.7-3.7,14.5-3.7C320.9-245,327.2-240.3,333-232z M317.9-223.9
		c-3.9,0.7-8,2.5-12.2,5.4c-4.2,2.9-8.2,6.9-11.9,11.8c-3.7,4.9-7.1,10.6-10.2,17.2c-3.1,6.5-5.5,13.6-7.2,21.1
		c11.6-6.5,21.3-14.6,29-24.2C313.2-202.2,317.4-212.6,317.9-223.9z"/>
	<path class="st1" d="M429.3-229.6c1.5,0,3.2,0.3,5.1,0.9c2,0.6,3.7,1.3,5.4,2.2c1.6,0.9,2.9,1.8,4,2.8c1.1,1,1.6,1.9,1.6,2.7
		c-2.9,6.9-5.6,13.8-8.1,20.7c-2.5,7-4.6,13.6-6.3,20c-1.7,6.4-3.1,12.4-4,17.9c-0.9,5.6-1.4,10.4-1.4,14.5c0,4.6,0.4,8.4,1.3,11.4
		c0.9,3,2.3,5.2,4.4,6.5c-1.7,1.3-4,2.4-6.8,3.2c-2.8,0.8-5.2,1.2-7.4,1.2c-7.9,0-11.8-6.1-11.8-18.2c0-9.3,2.8-22.1,8.3-38.3
		c-2.9,7.5-6.3,14.5-10,21.1c-3.8,6.6-7.6,12.4-11.6,17.5c-3.9,5-7.9,9.2-11.9,12.3c-4,3.2-7.7,5.1-11,5.7c-5.4,0-9.8-2.8-13.1-8.3
		c-3.4-5.5-5-12.5-5-21.1c0-9.2,1.7-18.9,5.2-29.1s8-19.6,13.4-28.3c5.5-8.7,11.4-16,17.8-21.8c6.4-5.8,12.6-8.8,18.6-8.8
		c1.5,0.5,3.1,1.5,4.9,2.9c1.8,1.5,3.6,3.2,5.2,5.1c1.7,2,3.1,4,4.3,6c1.2,2,1.8,3.8,2,5.3c-5.8,1-11.8,4.2-18,9.5
		c-6.2,5.4-11.8,11.9-16.8,19.5c-5,7.6-9.1,15.7-12.3,24.4c-3.2,8.7-4.8,16.7-4.8,24.2c0,3.1,1,5.1,3.1,5.9c4.2-1,9.1-5,14.6-12.1
		c5.5-7.1,12.2-18.1,20.1-33c1.5-2.9,3.1-6.2,4.9-9.8c1.8-3.6,3.7-7.4,5.6-11.3c1.9-3.9,3.7-7.9,5.6-11.9
		C426-221.9,427.7-225.8,429.3-229.6z"/>
	<path class="st1" d="M467.3-146.1c0-7.2,1.5-17.3,4.6-30.3c3.1-13,7.3-28.2,12.9-45.5c9-27.6,17.5-50.7,25.4-69.1
		c7.9-18.4,15.7-32.8,23.3-43.1c1.7,0.3,3.9,1.1,6.4,2.5c2.5,1.3,5.1,2.7,7.5,4.3c2.5,1.6,4.7,3.2,6.7,4.8c2,1.6,3.2,2.9,3.8,3.9
		c-11.4,15.1-21.3,31.3-29.9,48.6c-8.6,17.3-16.5,37.2-23.6,59.6c-6.1,19.3-10.8,36.7-14,52.1c-3.2,15.5-4.8,28.3-4.8,38.7
		c0,2.8,0,4.5,0,5.2c0,0.7,0.1,1.3,0.2,2c-2-0.3-3.8-0.9-5.2-1.7c-1.5-0.8-2.4-1.8-2.8-2.9c-0.3-0.8-1.1-2-2.4-3.6
		c-1.3-1.6-2.5-2.7-3.5-3.6c-1.3-1-2.4-3.6-3.3-7.7C467.7-136.2,467.3-140.9,467.3-146.1z"/>
</g>
<g class="st0">
	<path class="st2" d="M120.7-97.4v96.3h-11.3V-73L81-1.2h-7.9L44.4-73.1v71.9H33.2v-96.3h12.1L77-17.8l31.7-79.6H120.7z"/>
	<path class="st2" d="M164.6-60.1c2.8-5.9,6.7-10.5,11.6-13.7c4.9-3.2,10.4-4.9,16.4-4.9c5.9,0,11.1,1.4,15.5,4.3
		c4.4,2.9,7.6,6.5,9.8,10.9v-13.9h11.4v76.3h-11.4v-14.2c-2.2,4.5-5.6,8.1-10,11.1c-4.4,2.9-9.6,4.4-15.4,4.4c-6,0-11.5-1.7-16.3-5
		c-4.9-3.3-8.7-8-11.5-14.1c-2.8-6-4.2-12.9-4.2-20.6C160.4-47.3,161.8-54.2,164.6-60.1z M214.7-54.4c-2.1-4.3-4.9-7.5-8.4-9.8
		c-3.5-2.3-7.4-3.4-11.6-3.4c-4.2,0-8,1.1-11.5,3.3c-3.5,2.2-6.2,5.5-8.3,9.7c-2.1,4.3-3.1,9.3-3.1,15c0,5.8,1,10.9,3.1,15.2
		c2.1,4.3,4.8,7.6,8.3,9.9c3.5,2.3,7.3,3.4,11.5,3.4c4.2,0,8.1-1.1,11.6-3.4c3.5-2.3,6.3-5.6,8.4-9.9c2.1-4.3,3.1-9.3,3.1-15.1
		C217.8-45.2,216.8-50.2,214.7-54.4z"/>
	<path class="st2" d="M283.1-2.9c-4.1-2-7.4-4.8-9.8-8.3c-2.4-3.6-3.7-7.7-4-12.3H281c0.3,3.8,1.9,6.9,4.8,9.3
		c2.8,2.4,6.6,3.6,11.2,3.6c4.3,0,7.7-1.1,10.2-3.2c2.5-2.1,3.7-4.8,3.7-8.1c0-3.3-1.3-5.8-4-7.4c-2.6-1.6-6.7-3.2-12.3-4.8
		c-5-1.5-9.1-3-12.3-4.5c-3.2-1.5-5.9-3.8-8.2-6.8c-2.3-3-3.4-7-3.4-11.9c0-3.9,1-7.5,3.1-10.7c2.1-3.2,5-5.8,8.8-7.7
		c3.8-1.9,8.1-2.9,13-2.9c7.5,0,13.6,2.1,18.2,6.4c4.6,4.3,7.1,10.1,7.4,17.5h-11.3c-0.2-4-1.7-7.2-4.3-9.6
		c-2.6-2.4-6.1-3.6-10.5-3.6c-4,0-7.3,1-9.7,2.9c-2.4,1.9-3.6,4.5-3.6,7.7c0,2.5,0.7,4.6,2.2,6.2c1.4,1.6,3.3,2.9,5.4,3.9
		c2.2,1,5.2,2.1,9.1,3.3c4.9,1.5,8.8,2.9,11.9,4.4c3.1,1.4,5.7,3.6,7.9,6.5c2.2,2.9,3.3,6.6,3.4,11.3c0,4.2-1,7.9-3.1,11.3
		c-2.1,3.3-5,6-8.7,7.9c-3.8,1.9-8.1,2.9-12.9,2.9C291.9,0.1,287.2-0.9,283.1-2.9z"/>
	<path class="st2" d="M376.2-67V-22c0,3.7,0.7,6.3,2.1,7.9c1.4,1.5,3.8,2.3,7.3,2.3h8.3v10.7h-10.2c-6.3,0-11-1.6-14.1-4.9
		c-3.1-3.2-4.7-8.6-4.7-16V-67h-8.8v-10.4h8.8v-19.2h11.3v19.2h17.7V-67H376.2z"/>
	<path class="st2" d="M493.8-34.5h-54.2c0.4,7.5,2.7,13.4,6.9,17.6c4.2,4.2,9.2,6.3,15.2,6.3c4.9,0,8.9-1.3,12.2-3.8
		c3.3-2.6,5.6-6,6.9-10.2h12.1c-1.8,7.3-5.4,13.3-10.9,17.9c-5.4,4.6-12.2,6.9-20.3,6.9c-6.4,0-12.2-1.6-17.3-4.9
		c-5.1-3.2-9.1-7.9-11.9-13.8c-2.9-6-4.3-12.9-4.3-20.8c0-7.9,1.4-14.8,4.2-20.7c2.8-5.9,6.7-10.5,11.8-13.7
		c5.1-3.2,10.9-4.8,17.5-4.8c6.4,0,12.1,1.6,17.1,4.7c5,3.2,8.8,7.5,11.5,13c2.7,5.5,4,11.8,4,18.7
		C494.2-39.8,494.1-37.2,493.8-34.5z M479.7-57.3c-1.9-3.5-4.5-6.1-7.7-7.9c-3.3-1.8-6.9-2.7-10.8-2.7c-5.7,0-10.5,2-14.5,6.1
		c-4,4.1-6.3,9.7-6.9,17h42.8C482.5-49.7,481.6-53.8,479.7-57.3z"/>
	<path class="st2" d="M553.6-75.2c3.7-2.4,8.2-3.6,13.4-3.6v13.1h-3c-12.6,0-18.9,7.7-18.9,23.1v41.5h-11.3v-76.3h11.3V-65
		C547.1-69.4,549.9-72.8,553.6-75.2z"/>
</g>
<g>
	<g>
		<path class="st3" d="M220.5,521.6l1.3,2.4c-2.4,1.1-4.7,2.1-6.7,3.8C215.4,525.8,219.1,522.9,220.5,521.6z"/>
		<path class="st3" d="M233.8,524.9c8.4-11.1,19.7-18,32.8-22.4l0.4,1c-8.5,2-15.8,6.7-22.5,12.2c-1.5,1.2-3.1,2.4-4.5,3.8
			c-1.8,0.9-3.5,3.1-4.8,4.6C234.8,524.5,234.4,524.9,233.8,524.9z"/>
		<path class="st4" d="M221.9,524c2.4,4.3,4.5,8.8,6.8,13.2c1.4,2.7,3.1,5.5,4.2,8.4c-5.4-1.1-17-3.3-21.1-6.7
			c-0.7-0.6-1.4-1.4-1.4-2.4c-0.2-3.3,2.9-6.4,4.9-8.7C217.2,526,219.5,525.1,221.9,524z"/>
		<path class="st3" d="M345.9,499.8c7.8,5.6,17.7,15.9,19.4,25.8c0.4,2.2,0.3,4.4-1,6.3c-1,1.4-2.3,2.4-3.6,3.4
			c-0.1-0.4-0.2-0.8-0.3-1.3c-2.3-7.7-10.6-18.9-17.6-22.8C343.7,507.4,344.8,503.6,345.9,499.8z"/>
		<path class="st3" d="M277.3,485.1c20.8,2.5,39.5-2.2,59.2,8c-3,7.4-6.3,14.9-8.8,22.4c-1-1-2.1-2-3.2-2.9
			c-11.5-9-28-11.4-42.1-9.7c-0.5-0.7-1.3-1-2.2-1.1c-3.9-0.8-9.5,0.3-13.2,1.6l-0.4-1c10.2-3.5,24.2-4.9,34.9-3.7
			c4.9,0.6,9.8,1.8,14.6,2.9c-6.4-4.5-21.5-7.7-29.4-9c-2.7-0.4-6-0.4-8.6-1.2l0.3-0.3c11.4,1,23.3,3.5,33.8,8
			c2.1,0.9,4.1,2.1,6.2,3.1c3.8,1.8,7.6,3.4,11.1,5.7l0.3,0.2c0.3-0.5,0.5-1,0.8-1.5c0.4-0.8,1.5-2.7,1.1-3.4
			c-0.9-1.6-4.4-3-6.1-3.8c-9.7-4.8-19.9-8.1-30.5-10.4c-4-0.9-14.4-2.2-17.4-3.8C277.6,485.3,277.5,485.2,277.3,485.1z"/>
		<path class="st5" d="M317.9,344.3c0.1,1.3,2.9,5.6,3.6,7.2c6.2,12.9,8.8,25.4,7.3,39.8c-2.1,20.6-11.5,35-27.7,47.2
			c-10.3,7.7-20.6,14.5-25,27.2l3.1-3.4c11.2-12.8,28-16.6,40.4-28c10-9.2,15.7-22.6,16.2-36.2C336.4,380,330.2,357.7,317.9,344.3z"
			/>
		<path class="st5" d="M198,437.4c3.6,5,6.2,11,9.4,16.3c3.9,6.5,7.7,13.2,11.8,19.7c2.7,4.3,5.9,8.5,8,13.1c1.7,3.5,4,8.7,3.4,12.7
			c-0.4,2.4-1.5,4.4-3,6.2c-1.5,2-3.6,3.9-4.4,6.4c-0.3,0.8-0.4,1.7-0.3,2.6c0.6,4.2,5,11.8,7.1,15.8l0.4,0.7c2.9,5.4,5.8,10.8,9,16
			c-2.2-0.3-4.4-0.8-6.6-1.2c-1.1-2.9-2.8-5.7-4.2-8.4c-2.2-4.4-4.4-8.9-6.8-13.2l-1.3-2.4c-1.3-2.7-2.7-5.3-5.7-6.3
			c-1.7-0.6-3.4-0.5-5.2-0.4c-7.2,0.4-10.8-0.4-14.4-7.1c-4.8-8.9-8-20.2-11.5-29.8c-3.4-9.5-7.2-19-10-28.7l0.2,0.3
			c2.9,4.4,5,9.9,7.3,14.7l12.5,26.2c1,2.1,2,4.2,2.9,6.3c0.5,1.2,1,2.6,1.6,3.8c0.3,0.7,0.7,1,1.4,1.3c0.6-0.1,0.7-0.1,1.1-0.5
			c0.1-0.6,0.1-1.1-0.1-1.7c-0.5-1.5-1.3-3-1.9-4.4c-1.2-2.9-2.5-5.9-3.7-8.8c-3.4-8.7-6.8-17.5-10.1-26.3c-1.7-4.4-4-9-4.9-13.6
			c3.3,5.1,5.7,11,8.3,16.6l11.5,24.7c1.9,4.1,3.7,8.3,5.7,12.3c0.8-0.6,1.7-1.1,2.5-1.7c-4.8-11.3-9.5-22.6-14-34
			c-2.8-6.9-5.7-13.8-8-20.9l0.2,0.3c3.5,5.3,6.1,11.6,9,17.3c3.8,7.6,7.9,15.1,11.7,22.7c1.7,3.4,4,9.6,6.3,12.3
			c0.5-0.1,0.5-0.2,0.8-0.6c0.1-0.8,0-1.3-0.3-2.1c-0.6-1.5-1.5-2.8-2.1-4.3c-1.2-2.5-2.3-5.1-3.4-7.7c-3.1-7.3-5.8-14.8-8.8-22.1
			c-2.5-6.2-5.4-12.8-6.9-19.3c3.5,6.4,6.4,13.1,9.5,19.7c5.3,11.4,10.7,22.7,16.2,34c0.8-0.5,1.7-1,2.5-1.6l-13-31.6
			C204.4,452.8,200.8,445.1,198,437.4z"/>
		<path class="st5" d="M336.5,493.2c2.3-5.6,4.1-11.4,6.2-17.1c5.6-15.6,11.7-31.7,13.6-48.2c0.2-1.9,0.4-3.9,0.5-5.8
			c0.1-1.9,0.1-3.9,0-5.8s-0.2-3.9-0.4-5.8c-0.2-1.9-0.5-3.9-0.9-5.8c-0.2-0.8-0.8-2.2,0.2-2.5c2.7-0.9,7.1,0.9,9.3,2.4
			c7.1,4.8,10.2,13.6,11.7,21.7c2.5,13.5-0.8,32.4-8.7,43.6c-2.4,3.4-5.4,6.2-8.5,9c-7.6,6.7-10.3,11.4-13.6,21
			c-1.2,3.8-2.2,7.6-3.3,11.4c7.1,3.9,15.4,15.1,17.6,22.8c0.1,0.4,0.2,0.8,0.3,1.3c-2.7,1.6-5.4,2.8-8.3,4
			c-2.1,0.8-4.3,1.6-6.4,2.3c-2.4,0.6-4.8,1.3-7.2,2l-2.1,0.6l-6.8,1.6c2.4-21.6,8.5-43.7,18.8-62.9c-1.7,2.1-3.4,4.2-4.9,6.5
			c-1.5,2.2-2.9,4.5-4.2,6.9c-6,11.1-10.5,23.4-14.5,35.3c-1.7,5.1-3.5,10.3-4.4,15.6l-3.7,0.4c0.5-1.5,0.9-3,1.4-4.5
			c1.1-4.1,2.5-8.1,3.7-12.1l1.2-3.4l4.5-11.9C330.2,508,333.5,500.6,336.5,493.2z"/>
		<path class="st3" d="M337.2,538.7c1.1,1.6,0.9,3.2,1.4,4.9l-2.1,0.6C336.8,542.3,336.9,540.5,337.2,538.7z"/>
		<path class="st4" d="M339.4,525.8c3.1,4.2,5.2,10.6,6.4,15.7c-2.4,0.6-4.8,1.3-7.2,2c-0.5-1.7-0.3-3.3-1.4-4.9
			C337.1,535.5,338.8,529.4,339.4,525.8z"/>
		<path class="st3" d="M341.4,517.1c6.1,5.2,9.1,14.6,10.9,22.1c-2.1,0.8-4.3,1.6-6.4,2.3c-1.2-5.1-3.3-11.5-6.4-15.7
			C340,522.9,340.6,520,341.4,517.1z"/>
		<path class="st6" d="M360.7,406.7c1.1,0.4,2.1,1.1,3,1.9c6.2,5.9,9.1,17.5,9.3,25.8c0.4,14.4-4.7,28.3-14.6,38.7
			c-0.7,0.7-1.5,1.3-2.3,1.9c6-6.7,10-14.4,12.1-23.1C372,436.2,369,420.4,360.7,406.7z"/>
		<path class="st4" d="M342.7,511.2c7.1,3.9,15.4,15.1,17.6,22.8c0.1,0.4,0.2,0.8,0.3,1.3c-2.7,1.6-5.4,2.8-8.3,4
			c-1.8-7.6-4.7-16.9-10.9-22.1C341.7,515.1,342.2,513.2,342.7,511.2z"/>
		
			<linearGradient id="SVGID_1_" gradientUnits="userSpaceOnUse" x1="-308.441" y1="929.763" x2="-307.279" y2="921.9744" gradientTransform="matrix(4.8828 0 0 -4.8828 1782.132 5044.083)">
			<stop  offset="0" style="stop-color:#FF5722"/>
			<stop  offset="1" style="stop-color:#C71E07"/>
		</linearGradient>
		<path class="st7" d="M267,503.5c3.7-1.2,9.3-2.3,13.2-1.6c0.8,0.2,1.6,0.4,2.2,1.1c14.1-1.7,30.6,0.7,42.1,9.7
			c1.1,0.9,2.2,1.9,3.2,2.9l-4.5,11.9l-1.2,3.4c-1.2,4-2.6,8-3.7,12.1c-0.5,1.5-0.9,3-1.4,4.5c-13.7,1.8-27.2,2.6-41,2.6
			c-5.5,0-11.2-0.1-16.6-0.7c-2.9-0.4-5.9-0.6-8.8-0.9l-2.6-0.4c-2.8-0.5-5.6-0.9-8.5-1.3c-3.2-5.2-6.1-10.6-9-16l-0.4-0.7
			c1.3-1.7,2.5-3.5,3.8-5.2c0.6,0,1-0.4,1.5-0.8c1.3-1.5,3-3.7,4.8-4.6c1.3-1.4,3-2.6,4.5-3.8C251.2,510.2,258.4,505.4,267,503.5z"
			/>
		<path class="st3" d="M233.8,524.9c0.6,0,1-0.4,1.5-0.8l-0.4,1.2l0.2,0.1l1.3-0.7c-1.9,2-3.9,4.3-6,6.1l-0.4-0.7
			C231.3,528.4,232.5,526.6,233.8,524.9z"/>
		<path class="st8" d="M240.1,519.5c2.1,0.1,5.2-5.4,10.9-5.2c-5.2,3.1-9.9,6.6-14.6,10.5l-1.3,0.7l-0.2-0.1l0.4-1.2
			C236.6,522.6,238.3,520.4,240.1,519.5z"/>
		
			<linearGradient id="SVGID_00000114769534818459428120000010220002416956595898_" gradientUnits="userSpaceOnUse" x1="-311.2731" y1="927.9531" x2="-312.0423" y2="929.3132" gradientTransform="matrix(4.8828 0 0 -4.8828 1782.132 5044.083)">
			<stop  offset="0" style="stop-color:#FCE320"/>
			<stop  offset="1" style="stop-color:#FCF775"/>
		</linearGradient>
		<path style="fill:url(#SVGID_00000114769534818459428120000010220002416956595898_);" d="M267,503.5c3.7-1.2,9.3-2.3,13.2-1.6
			c0.8,0.2,1.6,0.4,2.2,1.1c-11.7,2.2-20.8,5.8-31.4,11.3c-5.7-0.2-8.8,5.3-10.9,5.2c1.3-1.4,3-2.6,4.5-3.8
			C251.2,510.2,258.4,505.4,267,503.5z"/>
		
			<linearGradient id="SVGID_00000024682792010813035820000007890437919439442070_" gradientUnits="userSpaceOnUse" x1="-306.384" y1="922.0358" x2="-307.2595" y2="928.1266" gradientTransform="matrix(4.8828 0 0 -4.8828 1782.132 5044.083)">
			<stop  offset="0" style="stop-color:#F3B000"/>
			<stop  offset="1" style="stop-color:#FCEE36"/>
		</linearGradient>
		<path style="fill:url(#SVGID_00000024682792010813035820000007890437919439442070_);" d="M249.1,540c0.9-4.8,3.7-9.8,6.8-13.5
			c7.2-8.8,18-13.9,29.3-14.9c10.9-1,22.2,2,30.7,9c2.5,2.1,4.5,4.8,7,6.8c0.1,0.1,0.1,0.1,0.2,0.2l-1.2,3.4
			c-0.2-0.3-0.4-0.5-0.6-0.8c-0.2-0.3-0.4-0.5-0.7-0.8c-0.2-0.3-0.4-0.5-0.7-0.8c-0.2-0.3-0.5-0.5-0.7-0.8c-0.2-0.3-0.5-0.5-0.7-0.7
			c-0.2-0.2-0.5-0.5-0.7-0.7c-0.2-0.2-0.5-0.5-0.7-0.7c-0.3-0.2-0.5-0.5-0.8-0.7c-0.3-0.2-0.5-0.5-0.8-0.7c-0.3-0.2-0.5-0.4-0.8-0.7
			c-0.3-0.2-0.5-0.4-0.8-0.6c-0.3-0.2-0.6-0.4-0.8-0.6c-0.3-0.2-0.6-0.4-0.8-0.6c-0.3-0.2-0.6-0.4-0.9-0.6c-0.3-0.2-0.6-0.4-0.9-0.6
			c-0.3-0.2-0.6-0.4-0.9-0.5c-0.3-0.2-0.6-0.3-0.9-0.5c-0.3-0.2-0.6-0.3-0.9-0.5c-0.3-0.2-0.6-0.3-0.9-0.5c-0.3-0.2-0.6-0.3-0.9-0.4
			c-0.3-0.1-0.6-0.3-0.9-0.4c-0.3-0.1-0.6-0.3-1-0.4c-0.3-0.1-0.6-0.3-1-0.4c-0.3-0.1-0.6-0.2-1-0.3c-0.3-0.1-0.7-0.2-1-0.3
			c-0.3-0.1-0.7-0.2-1-0.3c-0.3-0.1-0.7-0.2-1-0.3c-0.3-0.1-0.7-0.2-1-0.2c-0.3-0.1-0.7-0.2-1-0.2c-0.3-0.1-0.7-0.1-1-0.2
			c-0.3-0.1-0.7-0.1-1-0.2c-0.3-0.1-0.7-0.1-1-0.1c-10.6-1.4-20.6,1.4-29,7.9c-6.2,4.8-10.4,10.4-13.3,17.6
			c-0.6,2.7-1.3,5.4-1.4,8.2l-2.6-0.4C247.9,545.4,248.3,542.5,249.1,540z"/>
		<path class="st3" d="M249.1,540c0.5,2.3-1.3,4.6-0.4,6.9c0.5,0.4,0.5,0.4,1.1,0.5c0.9-1.8,0.7-4.9,1.6-7l0.4-0.2
			c-0.6,2.7-1.3,5.4-1.4,8.2l-2.6-0.4C247.9,545.4,248.3,542.5,249.1,540z"/>
		
			<linearGradient id="SVGID_00000125581965173405010740000015951464535535563956_" gradientUnits="userSpaceOnUse" x1="-306.5728" y1="927.6131" x2="-306.2974" y2="920.9049" gradientTransform="matrix(4.8828 0 0 -4.8828 1782.132 5044.083)">
			<stop  offset="0" style="stop-color:#FF5722"/>
			<stop  offset="1" style="stop-color:#C71E07"/>
		</linearGradient>
		<path style="fill:url(#SVGID_00000125581965173405010740000015951464535535563956_);" d="M251.9,540.3c2.9-7.2,7.1-12.8,13.3-17.6
			c8.5-6.5,18.4-9.3,29-7.9c0.3,0,0.7,0.1,1,0.2c0.3,0.1,0.7,0.1,1,0.2c0.3,0.1,0.7,0.1,1,0.2c0.3,0.1,0.7,0.1,1,0.2
			c0.3,0.1,0.7,0.2,1,0.2c0.3,0.1,0.7,0.2,1,0.3c0.3,0.1,0.7,0.2,1,0.3c0.3,0.1,0.7,0.2,1,0.3c0.3,0.1,0.6,0.2,1,0.3
			c0.3,0.1,0.6,0.2,1,0.4c0.3,0.1,0.6,0.3,1,0.4c0.3,0.1,0.6,0.3,0.9,0.4c0.3,0.1,0.6,0.3,0.9,0.4c0.3,0.2,0.6,0.3,0.9,0.5
			c0.3,0.2,0.6,0.3,0.9,0.5c0.3,0.2,0.6,0.3,0.9,0.5c0.3,0.2,0.6,0.3,0.9,0.5c0.3,0.2,0.6,0.4,0.9,0.6c0.3,0.2,0.6,0.4,0.9,0.6
			c0.3,0.2,0.6,0.4,0.8,0.6c0.3,0.2,0.6,0.4,0.8,0.6c0.3,0.2,0.5,0.4,0.8,0.6c0.3,0.2,0.5,0.4,0.8,0.7c0.3,0.2,0.5,0.4,0.8,0.7
			c0.3,0.2,0.5,0.5,0.8,0.7c0.3,0.2,0.5,0.5,0.7,0.7c0.2,0.2,0.5,0.5,0.7,0.7c0.2,0.2,0.5,0.5,0.7,0.7c0.2,0.3,0.5,0.5,0.7,0.8
			c0.2,0.3,0.5,0.5,0.7,0.8c0.2,0.3,0.4,0.5,0.7,0.8c0.2,0.3,0.4,0.5,0.6,0.8c-1.2,4-2.6,8-3.7,12.1c-2.2-3.4-4.6-6.9-7.9-9.2
			l-0.3,0.3c-2.1-0.2-4.7-2.1-6.7-3c-2.2-1-4.4-1.8-6.7-2.2c-4.9-1-10.2-1.3-15.2-0.8c-1.9,0.2-4.2,1-6,0.8c-0.1,0-0.3,0-0.4,0
			c-4.7,1.2-9.5,7.1-11.9,11.1c-1.8,3.1-2.5,6.2-3.8,9.5c-2.9-0.4-5.9-0.6-8.8-0.9C250.6,545.6,251.2,543,251.9,540.3z"/>
		
			<linearGradient id="SVGID_00000139278164884642397520000005674449087641378712_" gradientUnits="userSpaceOnUse" x1="-304.748" y1="922.9167" x2="-305.367" y2="925.597" gradientTransform="matrix(4.8828 0 0 -4.8828 1782.132 5044.083)">
			<stop  offset="0" style="stop-color:#F6C204"/>
			<stop  offset="1" style="stop-color:#FBF559"/>
		</linearGradient>
		<path style="fill:url(#SVGID_00000139278164884642397520000005674449087641378712_);" d="M274.9,528.9c8-3.6,16.9-4.1,25.2-1
			c3.6,1.4,7.3,3.4,10.2,5.9l-0.3,0.3c-2.1-0.2-4.7-2.1-6.7-3c-2.2-1-4.4-1.8-6.7-2.2c-4.9-1-10.2-1.3-15.2-0.8
			c-1.9,0.2-4.2,1-6,0.8C275.2,528.9,275.1,528.9,274.9,528.9z"/>
		<path class="st3" d="M274.9,528.9c0.1,0,0.3,0,0.4,0c1.9,0.1,4.1-0.6,6-0.8c5-0.6,10.3-0.2,15.2,0.8c2.3,0.5,4.6,1.2,6.7,2.2
			c2,0.9,4.6,2.8,6.7,3l0.3-0.3c3.4,2.3,5.8,5.8,7.9,9.2c-0.5,1.5-0.9,3-1.4,4.5c-13.7,1.8-27.2,2.6-41,2.6
			c-5.5,0-11.2-0.1-16.6-0.7c1.3-3.2,2-6.4,3.8-9.5C265.4,535.9,270.2,530.1,274.9,528.9z"/>
		<path class="st13" d="M274.6,591.8c0.2,0,0.5,0,0.7,0c16.1-0.3,32.4-0.3,48.4,0.6c17.7,1,35.2,2.9,52.7,5.6
			c8.8,1.3,16.7,2.3,25.5,4.2c4,0.9,9.4,0.3,12.4,3.4c1.8,1.8,2.5,4.3,2.5,6.8c0,3.1-0.5,6.9-2.9,9.1c-2.1,2-5.2,2.5-8,2.4
			c-4.7-0.2-9.4-1.6-14.1-2.5c-4.7-0.9-9.4-1.5-14.1-2.1c-14.9-2-29.8-4.1-44.7-5.5c-11.1-1-22.1-1.5-33.2-1.9
			c-28.7-0.4-57.4,0.4-85.8,4.6c-8.9,1.4-17.8,2.9-26.7,4.7c-5.5,1.1-11.2,2.7-16.8,3.4c-3.2,0.4-5.9,0-8.5-2.1
			c-2.2-1.8-3.7-4.3-4-7.2c-0.3-2.9,0.7-6,2.7-8.2c3.9-4.3,15.4-5.1,21.1-6.1c18.7-3.3,37.5-5.8,56.5-7.4
			C250.4,592.7,262.5,592.3,274.6,591.8z"/>
		
			<linearGradient id="SVGID_00000049914560040004091530000015257811570095289022_" gradientUnits="userSpaceOnUse" x1="205.0029" y1="586.0024" x2="203.5912" y2="376.2374">
			<stop  offset="0" style="stop-color:#C71E07"/>
			<stop  offset="0.9755" style="stop-color:#FF5722"/>
		</linearGradient>
		<path style="display:none;fill:url(#SVGID_00000049914560040004091530000015257811570095289022_);" d="M258.8,360
			c0-0.4,0.1-0.8,0.1-1.2c0-0.4,0-0.8,0-1.2c0-0.4,0-0.8,0-1.2c0-0.4-0.1-0.8-0.1-1.2c0-0.4-0.1-0.8-0.2-1.2
			c-0.1-0.4-0.1-0.8-0.2-1.2c-0.1-0.4-0.2-0.8-0.3-1.2c-0.1-0.4-0.2-0.8-0.3-1.2c-0.1-0.4-0.2-0.7-0.4-1.1
			c-7.9,1.8-15.7,4.3-23.1,7.5c-8.3,3.5-16.3,7.8-23.8,12.9c-7.4,5-14.4,10.7-20.7,17.1c-6.3,6.3-12.1,13.3-17.1,20.7
			c-5.1,7.5-9.4,15.5-12.9,23.8c-3.6,8.4-6.3,17.3-8.2,26.3c-1.9,9.2-2.8,18.7-2.8,28.2s1,19,2.8,28.2c1.8,9,4.6,17.8,8.2,26.3
			c3.5,8.3,7.8,16.3,12.9,23.8c5,7.4,10.7,14.4,17.1,20.7c2.9,2.9,6,5.8,9.2,8.4c8.9-1.3,17.9-2.5,26.9-3.4
			c-35.2-21.3-58.7-59.9-58.7-103.9c0-56,37.9-103.1,89.5-117.1c0.9-2.3,1.5-4.6,1.9-7C258.8,360.8,258.8,360.4,258.8,360z"/>
		
			<linearGradient id="SVGID_00000039847003647402063380000013952634879013578139_" gradientUnits="userSpaceOnUse" x1="380.1054" y1="586.5945" x2="381.4255" y2="383.4084">
			<stop  offset="0" style="stop-color:#C71E07"/>
			<stop  offset="0.9284" style="stop-color:#FF5722"/>
		</linearGradient>
		<path style="display:none;fill:url(#SVGID_00000039847003647402063380000013952634879013578139_);" d="M422.3,457.2
			c-1.8-9-4.6-17.8-8.2-26.3c-3.5-8.3-7.8-16.3-12.9-23.8c-5-7.4-10.7-14.4-17.1-20.7c-6.3-6.3-13.3-12.1-20.7-17.1
			c-7.5-5.1-15.5-9.4-23.8-12.9c-0.8-0.3-1.6-0.7-2.4-1c2.2,7.2,3.6,14.8,4.1,22.2c38.8,20.3,65.3,60.9,65.3,107.7
			c0,44-23.4,82.5-58.4,103.8c8.6,0.9,17.1,2.1,25.6,3.4c0.4,0.1,0.7,0.1,1.1,0.2c3.2-2.7,6.3-5.5,9.2-8.4
			c6.3-6.3,12.1-13.3,17.1-20.7c5.1-7.5,9.4-15.5,12.9-23.8c3.6-8.4,6.3-17.3,8.2-26.3c1.9-9.2,2.8-18.7,2.8-28.2
			S424.1,466.4,422.3,457.2z"/>
		<path class="st3" d="M322.1,386.2c0.5-3,0-6.2-0.4-9.1c-0.1-0.7-0.2-1.3-0.3-2c-0.1-0.7-0.2-1.3-0.4-2c-0.1-0.7-0.3-1.3-0.4-2
			c-0.2-0.7-0.3-1.3-0.5-2c-0.2-0.7-0.4-1.3-0.6-2c-0.2-0.7-0.4-1.3-0.6-1.9s-0.4-1.3-0.7-1.9c-0.2-0.6-0.5-1.3-0.7-1.9
			c-0.3-0.6-0.5-1.3-0.8-1.9c-0.3-0.6-0.6-1.2-0.9-1.9s-0.6-1.2-0.9-1.8c-0.3-0.6-0.6-1.2-1-1.8c-0.3-0.6-0.7-1.2-1-1.8
			c-0.4-0.6-0.7-1.2-1.1-1.7c-0.4-0.6-0.8-1.1-1.1-1.7c-0.4-0.6-0.8-1.1-1.2-1.7c-7.4-10-17-16.8-27.6-22.8
			c8.8,11,14.9,23.8,13.3,38.3c-1.3,11.6-6.7,20.6-13.8,29.5c2.7-10.8,4-21.5-2-31.5c-3.5-5.9-8.4-9.8-13.9-13.6
			c0.4,0.5,0.7,1,1.1,1.5c0.3,0.5,0.7,1,1,1.5c0.3,0.5,0.6,1,0.9,1.6c0.3,0.5,0.6,1.1,0.8,1.6c0.3,0.5,0.5,1.1,0.7,1.6
			c0.2,0.6,0.5,1.1,0.7,1.7c0.2,0.6,0.4,1.1,0.6,1.7c0.2,0.6,0.3,1.2,0.5,1.7c0.2,0.6,0.3,1.2,0.4,1.8c0.1,0.6,0.2,1.2,0.3,1.8
			s0.2,1.2,0.2,1.8c0.1,0.6,0.1,1.2,0.1,1.8c0,0.6,0.1,1.2,0.1,1.8c0,0.6,0,1.2,0,1.8c0,0.6-0.1,1.2-0.1,1.8
			c-0.1,0.6-0.1,1.2-0.2,1.8c-2,14.4-11.6,24.9-18.8,36.9c-13.8,23.2-6.4,49.8,8.8,70.1c2.1,2.9,4.4,5.9,6.9,8.4
			c-0.4-1-0.7-2.2-1.3-3.2c-1.2-3.6-2-7-1.8-10.7c0.2-5,1.6-10,3.7-14.6c7.5-16.8,22.1-23.5,34.9-35.3
			C316.3,415.3,321.5,401.8,322.1,386.2z"/>
		<path class="st16" d="M306.4,358.6c-0.2,2,0.9,4.8,1.3,6.8c0.1,0.7,0.2,1.3,0.3,2c0.1,0.7,0.2,1.3,0.2,2c0.1,0.7,0.1,1.3,0.1,2
			s0,1.3,0,2c0,0.7,0,1.3-0.1,2c0,0.7-0.1,1.3-0.2,2c-0.1,0.7-0.2,1.3-0.3,2c-0.1,0.7-0.2,1.3-0.4,2c-3.6,17.1-17.1,27.2-30.3,36.8
			c-0.8,0.6-3,1.8-3.3,2.7l0.4,0c3.2-1.7,6.6-2.8,9.9-4.1c9.7-3.9,17.7-11.2,21.8-20.9c0.2-0.4,0.3-0.7,0.4-1.1s0.3-0.7,0.4-1.1
			c0.1-0.4,0.3-0.8,0.4-1.1c0.1-0.4,0.2-0.8,0.4-1.1c0.1-0.4,0.2-0.8,0.3-1.1c0.1-0.4,0.2-0.8,0.3-1.2c0.1-0.4,0.2-0.8,0.3-1.2
			c0.1-0.4,0.2-0.8,0.3-1.2c0.1-0.4,0.2-0.8,0.2-1.2c0.1-0.4,0.1-0.8,0.2-1.2c0.1-0.4,0.1-0.8,0.2-1.2c0.1-0.4,0.1-0.8,0.1-1.2
			c0-0.4,0.1-0.8,0.1-1.2c0-0.4,0.1-0.8,0.1-1.2c0-0.4,0-0.8,0.1-1.2c0-0.4,0-0.8,0-1.2c0-0.4,0-0.8,0-1.2c0-0.4,0-0.8,0-1.2
			c0-0.4,0-0.8-0.1-1.2c0-0.4-0.1-0.8-0.1-1.2c0-0.4-0.1-0.8-0.1-1.2c0-0.4-0.1-0.8-0.1-1.2c-0.1-0.4-0.1-0.8-0.2-1.2
			c-0.1-0.4-0.1-0.8-0.2-1.2c-0.1-0.4-0.1-0.8-0.2-1.2c-0.1-0.4-0.2-0.8-0.3-1.2c-0.1-0.4-0.2-0.8-0.3-1.2c-0.1-0.4-0.2-0.8-0.3-1.2
			c-0.1-0.4-0.2-0.8-0.3-1.1c-0.1-0.4-0.2-0.8-0.4-1.1c-0.1-0.4-0.3-0.8-0.4-1.1C306.6,359.3,306.5,359,306.4,358.6z"/>
		<path class="st13" d="M322.1,386.2l-0.2-0.1c-0.7,1.4-1.1,3.1-1.6,4.7c-0.5,1.7-1.2,3.2-2,4.8c-5.8,11.6-16.5,19.7-28.8,23.3
			c-5.1,1.5-9.5,1.4-14.3,2.6c-5.8,1.4-10.4,6.5-13.1,11.6c-6.2,11.4-5.8,26.2-2.1,38.3c1.1,3.5,4.5,13.2,7.8,15.1
			c0.1,0,0.2,0.1,0.2,0.1c-1.2-3.6-2-7-1.8-10.7c0.2-5,1.6-10,3.7-14.6c7.5-16.8,22.1-23.5,34.9-35.3
			C316.3,415.3,321.5,401.8,322.1,386.2z"/>
		<path class="st5" d="M366.5,520c1.7,1.1,3.3,2.2,4.5,3.7c2.8,3.4,2,7.8,1.5,11.8c-2,16.9-7,32.6-17.9,45.8
			c-2.3,2.7-4.7,5.6-7.5,7.8c-6.6-1.2-13.7-1.5-20.4-2c-21.9-1.7-44.2-2.3-66.1-1c-5.2,0.7-10.7,0.5-15.9,1
			c-1.1,0.1-2.6,0.1-3.6,0.5c-4.4,0.4-8.8,0.9-13.2,1.3c-5.2-3.6-10.9-10.7-14.3-16c-5.6-8.6-12.2-24-9.7-34.5
			c1-4.2,4.3-6.3,7.7-8.4c-1.8,1.8-3.6,3.7-4.4,6.1c-0.6,1.9-0.7,4.2,0.3,6c0.4,0.7,0.9,1.3,1.6,1.7c2.3,1.5,8.5,3.1,11.5,3.9
			c32.8,9.1,82.8,7.6,116.1,0c8.4-1.9,17.4-4.3,24.9-8.6c3.5-2,7.4-4.7,8.4-8.8C370.7,526.4,368.4,523.1,366.5,520z"/>
		<path class="st17" d="M279.9,559.1c3.3-0.4,6.7-0.3,10-0.5c4.6-0.3,9.2-0.7,13.7-1.2c4.4-0.5,8.8-1.1,13.2-1.8
			c1.6-0.2,3.6-0.9,5.2-0.8c-4.5,1.5-9.2,2.5-13.8,3.7c-4.5,1.2-9,2.5-13.4,3.9c-3,1-5.9,2.3-8.8,3.5c-9.1,3.9-18.9,8.5-25,16.7
			c-0.5,0.7-1.3,1.5-1.6,2.3c-0.1,0.3-0.1,0.4-0.2,0.6l0.2,0.3l1.1,0.1c-5.2,0.7-10.7,0.5-15.9,1c-1.1,0.1-2.6,0.1-3.6,0.5
			c-1.4-1.7-4.1-3-5.9-4.4c-2.6-2-5-4.1-7.3-6.4c17.5-0.3,26.3-7.1,41.5-13.2c4.8-1.9,9.8-3.2,14.9-4.3L279.9,559.1z"/>
		<path class="st6" d="M209.7,548.5c20.5,11.2,47.5,10.8,70.2,10.6l4.2,0.1c-5.1,1.1-10.1,2.4-14.9,4.3c-15.2,6.1-24,12.9-41.5,13.2
			C219,569.3,213.7,559.1,209.7,548.5z"/>
		<path class="st18" d="M237.9,588.2c11.9-1,23.9-1.4,35.6-1.8l0.9,0c0.3,0,0.5,0,0.8,0c6.7-0.1,12.7-0.2,18.3-0.2
			c11.2,0,21.2,0.3,30.5,0.8l0,0c9.2,0.5,18.4,1.3,27.6,2.3c35-21.3,58.4-59.8,58.4-103.8c0-67-54.3-121.4-121.4-121.4
			s-121.4,54.3-121.4,121.4c0,44.1,23.5,82.7,58.7,103.9C230,588.9,233.9,588.5,237.9,588.2L237.9,588.2z"/>
	</g>
	<g>
		<path class="st3" d="M445.9,611.3c-0.2,0.1-0.3,0.1-0.5,0.1c-0.2,0-0.5,0-1,0c-1.2,0-2.6-0.2-4.2-0.6c-1.6-0.4-3.1-0.9-4.7-1.4
			c-1.5-0.6-2.8-1.2-3.9-1.9c-1.1-0.7-1.7-1.3-2-1.8c-0.1-1.2-0.1-2.5-0.1-3.7c0-1.3,0-2.5,0-3.7c0-9.6,0.7-19.7,2.1-30.2
			c1.4-10.5,3.8-21.9,7-34.1c0.3-1.2,0.7-2.7,1.1-4.6c0.4-1.9,0.8-3.9,1.2-6c-2.1,1.6-4.5,4.2-7.4,7.8c-2.8,3.6-5.8,7.8-9,12.7
			c-3.1,4.9-6.3,10.2-9.4,16c-3.1,5.8-6,11.7-8.6,17.7c-2.6,6-4.8,11.9-6.7,17.8c-1.9,5.9-3,11.3-3.4,16.3c-4.1-1.2-7-2.4-8.6-3.6
			c-1.6-1.2-2.4-2.7-2.4-4.4c0-1.6,0.5-3.7,1.4-6.6c0.9-2.8,2.3-6.2,4-10.1c1.7-3.9,3.8-8.2,6.3-13c2.5-4.8,5.3-9.9,8.3-15.4
			c3.4-6.3,6.8-12.2,10.1-17.7c3.3-5.5,6.6-10.5,9.8-15c3.2-4.5,6.3-8.4,9.4-11.6c3.1-3.3,6.1-5.8,9.1-7.5c1.2,0,2.8,0.3,4.8,0.9
			c2,0.6,4,1.3,5.9,2.2c1.9,0.9,3.7,1.7,5.2,2.6c1.5,0.9,2.3,1.7,2.5,2.3c-1.2,2.4-2.6,6-4.3,10.9c-1.6,4.8-3.3,10.3-5,16.4
			c-1.7,6.1-3.3,12.6-4.8,19.5c-1.5,6.9-2.7,13.4-3.6,19.7c2-4.7,4.3-9.7,6.9-14.8c2.6-5.1,5.4-10.2,8.3-15.3c2.9-5,5.9-9.9,9-14.7
			c3.1-4.7,6.1-9.1,9-13c2.9-3.9,5.7-7.3,8.2-10.3c2.5-2.9,4.8-5.1,6.8-6.5c1.2,0,2.8,0.3,4.8,0.9c2,0.6,4,1.3,5.9,2.2
			c1.9,0.9,3.7,1.7,5.2,2.6c1.5,0.9,2.3,1.7,2.5,2.3c-2.8,4.9-5.2,10.9-7.2,18c-2.1,7.1-3.8,14.5-5.2,22.2
			c-1.4,7.8-2.5,15.4-3.2,23.1c-0.7,7.6-1.1,14.5-1.1,20.5c0,2,0,4,0,6.2c0,2.2,0.1,4.4,0.3,6.7c-1.2,0-2.7-0.2-4.3-0.5
			c-1.7-0.3-3.3-0.7-4.9-1.2c-1.6-0.5-3-1.1-4.3-1.7s-2.2-1.4-2.7-2.1c-0.1-1.2-0.1-2.5-0.1-3.7c0-1.3,0-2.5,0-3.7
			c0-9.6,0.7-19.7,2.1-30.2c1.4-10.5,3.8-21.9,7-34.1c0.3-1.2,0.7-2.8,1.2-4.9c0.4-2.1,0.9-4.2,1.3-6.5c-2.4,1.2-5.2,3.5-8.2,6.9
			c-3.1,3.4-6.2,7.5-9.3,12.4c-3.1,4.9-6.2,10.3-9.3,16.2c-3.1,5.9-5.8,12-8.3,18.2c-2.5,6.2-4.5,12.3-6.2,18.4
			S446.3,606.2,445.9,611.3z"/>
		<path class="st3" d="M511.2,547c2.9-5.5,7-9.7,12.1-12.7c5.1-3,10.8-4.5,17.1-4.5c6.2,0,11.6,1.3,16.2,4c4.6,2.7,8,6,10.2,10.1
			v-12.9h11.9v70.8h-11.9v-13.2c-2.3,4.1-5.8,7.6-10.4,10.3c-4.6,2.7-10,4.1-16.1,4.1c-6.3,0-12-1.6-17.1-4.7
			c-5.1-3.1-9.1-7.5-12-13.1c-2.9-5.6-4.4-12-4.4-19.1C506.8,558.9,508.3,552.5,511.2,547z M563.6,552.3c-2.2-4-5.1-7-8.7-9.1
			c-3.7-2.1-7.7-3.2-12.1-3.2c-4.4,0-8.4,1-12,3.1c-3.6,2.1-6.5,5.1-8.7,9c-2.2,4-3.2,8.6-3.2,14c0,5.4,1.1,10.1,3.2,14.2
			c2.2,4,5,7.1,8.7,9.2c3.6,2.1,7.6,3.2,12,3.2c4.4,0,8.4-1.1,12.1-3.2c3.7-2.1,6.6-5.2,8.7-9.2s3.2-8.7,3.2-14
			C566.8,560.9,565.7,556.2,563.6,552.3z"/>
		<path class="st3" d="M609.1,600.2c-4.3-1.9-7.7-4.4-10.2-7.8c-2.5-3.3-3.9-7.1-4.1-11.4h12.2c0.3,3.5,2,6.4,5,8.7
			c3,2.2,6.9,3.4,11.7,3.4c4.5,0,8-1,10.6-3c2.6-2,3.9-4.5,3.9-7.5c0-3.1-1.4-5.4-4.1-6.9c-2.8-1.5-7-3-12.8-4.5
			c-5.3-1.4-9.5-2.8-12.9-4.2c-3.3-1.4-6.2-3.5-8.5-6.3c-2.4-2.8-3.6-6.5-3.6-11.1c0-3.6,1.1-6.9,3.2-10c2.2-3,5.2-5.4,9.2-7.2
			c4-1.8,8.5-2.6,13.6-2.6c7.8,0,14.2,2,19,5.9c4.8,4,7.4,9.4,7.8,16.3h-11.8c-0.3-3.7-1.7-6.7-4.5-8.9c-2.7-2.2-6.4-3.4-10.9-3.4
			c-4.2,0-7.6,0.9-10.1,2.7c-2.5,1.8-3.7,4.2-3.7,7.1c0,2.3,0.8,4.2,2.3,5.8c1.5,1.5,3.4,2.7,5.7,3.6c2.3,0.9,5.4,1.9,9.5,3
			c5.1,1.4,9.2,2.7,12.4,4.1c3.2,1.3,5.9,3.3,8.2,6c2.3,2.7,3.5,6.2,3.6,10.5c0,3.9-1.1,7.4-3.2,10.5c-2.2,3.1-5.2,5.5-9.1,7.3
			c-3.9,1.8-8.4,2.6-13.5,2.6C618.2,602.9,613.4,602,609.1,600.2z"/>
		<path class="st3" d="M680.4,540.6v41.8c0,3.4,0.7,5.9,2.2,7.3c1.5,1.4,4,2.1,7.6,2.1h8.7v10h-10.6c-6.5,0-11.5-1.5-14.7-4.5
			c-3.3-3-4.9-8-4.9-14.9v-41.8h-9.2v-9.7h9.2v-17.8h11.8v17.8h18.5v9.7H680.4z"/>
		<path class="st3" d="M777.4,570.7h-56.6c0.4,7,2.8,12.4,7.2,16.4c4.3,3.9,9.6,5.9,15.8,5.9c5.1,0,9.3-1.2,12.7-3.6
			c3.4-2.4,5.8-5.5,7.2-9.5h12.7c-1.9,6.8-5.7,12.3-11.4,16.6c-5.7,4.3-12.8,6.4-21.2,6.4c-6.7,0-12.7-1.5-18-4.5
			c-5.3-3-9.5-7.3-12.5-12.9c-3-5.6-4.5-12-4.5-19.3c0-7.3,1.5-13.7,4.4-19.3c2.9-5.5,7-9.8,12.3-12.7c5.3-3,11.4-4.5,18.3-4.5
			c6.7,0,12.7,1.5,17.8,4.4c5.2,2.9,9.2,7,12,12.1c2.8,5.1,4.2,10.9,4.2,17.4C777.7,565.9,777.6,568.2,777.4,570.7z M762.6,549.6
			c-2-3.2-4.7-5.7-8.1-7.4c-3.4-1.7-7.2-2.5-11.3-2.5c-5.9,0-11,1.9-15.2,5.7c-4.2,3.8-6.6,9-7.2,15.8h44.7
			C765.6,556.7,764.6,552.8,762.6,549.6z"/>
		<path class="st3" d="M813.9,533c3.8-2.2,8.5-3.4,14-3.4v12.2h-3.1c-13.2,0-19.8,7.2-19.8,21.5v38.5h-11.8v-70.8H805v11.5
			C807.1,538.4,810,535.2,813.9,533z"/>
	</g>
	<g>
		<path class="st5" d="M469.8,496.3c-0.2,0.1-0.5,0.2-0.7,0.2c-0.2,0-0.7,0-1.4,0c-1.6,0-3.5-0.3-5.7-0.8c-2.2-0.5-4.3-1.2-6.3-1.9
			c-2.1-0.8-3.8-1.6-5.3-2.5c-1.5-0.9-2.4-1.8-2.7-2.5c-0.1-1.6-0.2-3.3-0.2-5.1c0-1.8,0-3.5,0-5.1c0-13.1,1-26.8,2.9-41.1
			c1.9-14.3,5.1-29.8,9.6-46.4c0.5-1.6,1-3.7,1.5-6.2c0.5-2.5,1.1-5.2,1.7-8.2c-2.8,2.2-6.2,5.8-10,10.6
			c-3.9,4.9-7.9,10.6-12.2,17.2c-4.3,6.6-8.6,13.9-12.8,21.8c-4.3,7.9-8.2,15.9-11.7,24.1c-3.5,8.1-6.5,16.2-9,24.2
			c-2.5,8-4.1,15.3-4.7,22.1c-5.6-1.6-9.5-3.3-11.7-4.9c-2.2-1.6-3.3-3.6-3.3-6c0-2.1,0.6-5.1,1.9-9c1.3-3.9,3.1-8.4,5.4-13.7
			c2.3-5.3,5.2-11.2,8.6-17.7c3.4-6.5,7.1-13.5,11.2-21c4.7-8.6,9.3-16.6,13.8-24.1c4.5-7.5,8.9-14.3,13.3-20.4
			c4.3-6.1,8.6-11.4,12.7-15.8c4.2-4.5,8.3-7.8,12.4-10.2c1.6,0,3.8,0.4,6.6,1.2c2.8,0.8,5.4,1.8,8.1,3c2.6,1.2,5,2.4,7,3.6
			c2,1.2,3.2,2.3,3.4,3.1c-1.6,3.3-3.6,8.2-5.8,14.8c-2.2,6.6-4.5,14-6.8,22.3c-2.3,8.3-4.5,17.1-6.5,26.4
			c-2.1,9.3-3.7,18.2-4.8,26.8c2.7-6.4,5.8-13.1,9.4-20.1c3.6-7,7.4-13.9,11.3-20.7c4-6.9,8.1-13.5,12.2-19.9
			c4.2-6.4,8.2-12.3,12.2-17.7c4-5.3,7.7-10,11.2-14c3.5-4,6.5-6.9,9.2-8.8c1.6,0,3.8,0.4,6.6,1.2c2.8,0.8,5.4,1.8,8.1,3
			c2.6,1.2,5,2.4,7,3.6c2,1.2,3.2,2.3,3.4,3.1c-3.8,6.7-7,14.8-9.8,24.4c-2.8,9.6-5.2,19.7-7.1,30.2s-3.4,21-4.4,31.4
			c-1,10.4-1.5,19.7-1.5,27.9c0,2.7,0,5.5,0,8.4c0,2.9,0.1,6,0.4,9.1c-1.6,0-3.6-0.2-5.9-0.6c-2.3-0.4-4.5-1-6.7-1.7
			c-2.2-0.7-4.1-1.5-5.9-2.4c-1.8-0.9-3-1.8-3.7-2.9c-0.1-1.6-0.2-3.3-0.2-5.1c0-1.8,0-3.5,0-5.1c0-13.1,1-26.8,2.9-41.1
			c1.9-14.3,5.1-29.8,9.6-46.4c0.5-1.6,1-3.9,1.6-6.7c0.6-2.8,1.2-5.7,1.8-8.8c-3.3,1.6-7,4.8-11.2,9.4c-4.2,4.6-8.4,10.3-12.7,16.9
			c-4.3,6.6-8.5,14-12.6,22.1c-4.2,8.1-7.9,16.3-11.2,24.7c-3.3,8.4-6.2,16.7-8.4,25C471.7,481.8,470.3,489.4,469.8,496.3z"/>
		<path class="st5" d="M654.7,441.1h-77c0.6,9.5,3.8,16.9,9.8,22.2c5.9,5.3,13.1,8,21.5,8c6.9,0,12.7-1.6,17.3-4.8
			c4.6-3.2,7.9-7.5,9.8-12.9h17.2c-2.6,9.3-7.7,16.8-15.5,22.6c-7.7,5.8-17.3,8.7-28.8,8.7c-9.1,0-17.3-2-24.5-6.1
			c-7.2-4.1-12.9-9.9-17-17.5c-4.1-7.6-6.2-16.3-6.2-26.3c0-10,2-18.7,6-26.2c4-7.5,9.6-13.3,16.8-17.3s15.5-6.1,24.9-6.1
			c9.1,0,17.2,2,24.2,6c7,4,12.4,9.5,16.3,16.4c3.8,7,5.7,14.8,5.7,23.6C655.2,434.5,655,437.7,654.7,441.1z M634.7,412.4
			c-2.7-4.4-6.4-7.7-11-10c-4.6-2.3-9.8-3.4-15.4-3.4c-8.1,0-15,2.6-20.6,7.7c-5.7,5.2-8.9,12.3-9.8,21.4h60.8
			C638.7,422,637.3,416.8,634.7,412.4z"/>
		<path class="st5" d="M685.1,408.9c4-7.4,9.5-13.2,16.4-17.3c7-4.1,14.7-6.2,23.3-6.2c8.4,0,15.8,1.8,22,5.4
			c6.2,3.6,10.8,8.2,13.9,13.7V387h16.2v96.3h-16.2v-17.9c-3.2,5.6-7.9,10.3-14.1,14c-6.3,3.7-13.6,5.5-21.9,5.5
			c-8.6,0-16.3-2.1-23.2-6.3c-6.9-4.2-12.4-10.1-16.3-17.7c-4-7.6-6-16.3-6-26C679.1,425,681.1,416.3,685.1,408.9z M756.3,416
			c-2.9-5.4-6.9-9.5-11.9-12.4c-5-2.9-10.5-4.3-16.4-4.3s-11.4,1.4-16.3,4.2s-8.8,6.9-11.8,12.3c-2.9,5.4-4.4,11.7-4.4,19
			c0,7.4,1.5,13.8,4.4,19.2c2.9,5.4,6.9,9.6,11.8,12.5c4.9,2.9,10.4,4.3,16.3,4.3s11.4-1.4,16.4-4.3c5-2.9,8.9-7,11.9-12.5
			c2.9-5.4,4.4-11.8,4.4-19.1C760.6,427.7,759.2,421.4,756.3,416z"/>
		<path class="st5" d="M828.6,353.3v130h-16v-130H828.6z"/>
	</g>
</g>
<text transform="matrix(1 0 0 1 -515.3521 1121.0645)" class="st0"><tspan x="0" y="0" style="display:inline; font-family:'KaushanScript-Regular'; font-size:129.2577px;">M</tspan><tspan x="121.8" y="0" style="display:inline; font-family:'Poppins-Regular'; font-size:129.2577px;">aster</tspan></text>
<text transform="matrix(1 0 0 1 -515.3521 992.5918)" class="st0"><tspan x="0" y="0" style="display:inline; font-family:'KaushanScript-Regular'; font-size:175.7207px; letter-spacing:8;">M</tspan><tspan x="174.3" y="0" style="display:inline; font-family:'Poppins-Regular'; font-size:175.7207px; letter-spacing:8;">eal</tspan></text>
</svg>
